<?xml version="1.0" encoding="utf-8"?>
<!-- Generator: Adobe Illustrator 18.1.1, SVG Export Plug-In . SVG Version: 6.00 Build 0)  -->
<svg version="1.1" id="Layer_1" xmlns="http://www.w3.org/2000/svg" xmlns:xlink="http://www.w3.org/1999/xlink" x="0px" y="0px"
	 viewBox="0 0 480.9 178" enable-background="new 0 0 480.9 178" xml:space="preserve">
<g>
	<g>
		<path fill="#FFFFFF" d="M0,222.5C0,129.9,0,37.3,0-55.2c160.3,0,320.6,0,480.9,0c0,92.6,0,185.2,0,277.8
			C320.6,222.5,160.3,222.5,0,222.5z M33.6,97.9c-0.3-0.2-0.6-0.5-0.8-0.5c-1.9,0.1-3.8,0.1-5.5-1c-0.1-0.1-0.3,0-0.4,0
			c-2.5-0.3-4.4,1.2-6.4,2.3c-0.7,0.4-1.3,1-1.8,1.6c-0.5,0.6-0.3,1.1,0.5,1.3c0.7,0.1,1.5,0.2,2.4,0.3c-1.1,1.8-2.1,3.4-3.1,5
			c0.1,0.1,0.2,0.1,0.3,0.2c1.3-1.9,2.5-3.8,3.9-5.8c-1.3-0.1-2.3-0.2-3.3-0.2c-0.1-0.2-0.1-0.3-0.2-0.5c2-1.1,4.1-2.3,6.2-3.3
			c0.5-0.2,1.3-0.3,1.8,0C29.2,98.3,31.4,97.9,33.6,97.9c1.2,1.3,1.2,2-0.1,3.2c-0.8,0.8-1.7,1.4-2.5,2.2c-2,1.8-3.9,3.7-5.8,5.5
			c-0.2-0.3-0.3-0.6-0.6-1.2c-0.2,0.6-0.6,1.1-0.5,1.3c0.7,1.5-0.5,1.9-1.2,2.8c-0.3-1.7-0.2-3.1,1.1-4.2c0.2-0.2,0.1-0.6,0.1-1
			c-0.3,0.2-0.7,0.2-0.9,0.5c-0.3,0.3-0.4,0.8-0.7,0.9c-0.7,0.4-1.4,0.6-2.1,0.9c-0.2-0.3-0.4-0.7-0.6-1.1c-0.6,0.7-0.2,2.1-1.7,1.9
			c0.3-0.7,0.6-1.3,0.9-1.9c0,0-0.1-0.1-0.1-0.1c-0.9,0.8-1.7,1.6-2.8,2.6c2.7,1.1,4.3-0.4,6-1.7c-0.1,1.2-0.1,2.2-0.2,3.2
			c-0.1,0.5-0.1,1.2-0.4,1.6c-1.9,2.6-4.1,5-5.8,7.7c-1.4,2.1-2.4,4.4-3.5,6.7c-1.7,3.9-3.3,7.8-4.9,11.8c-0.6,1.4,0,2.5,1.3,2.5
			c0.7,0,1.4-0.4,2-0.8c1.7-1.4,3.2-2.8,5.5-3.1c0.7-0.1,1.4-0.9,1.8-1.5c2.6-5.4,7-8.8,12.4-11c1.3-0.5,2.6-0.8,4.1,1
			c0.4-0.7,0.8-1.4,1.2-1.9c0.8-1.1,1.7-2.2,2.6-3.4c2.4-3.4,5.4-6.1,8.5-8.9c0.2-0.2,0.4-0.3,0.6-0.5c2.8-1.7,5.5-3.5,8.4-5.1
			c1.6-0.9,3.3-1.9,5.1-2.5c6.6-2.3,13.4-3,20.3-2.4c0.4,0,0.8,0,1.3-0.1c-0.1-0.3-0.1-0.5-0.2-0.7c-1-1.3-2-2.6-3.1-3.8
			c-1-1.1-1.6-2.1-0.3-3.4c0,0,0-0.2,0-0.3c-0.3-0.1-0.5-0.2-0.8-0.3c-1.8-0.7-2.2-1.5-1.7-3.3c0.1-0.5,0.1-1,0.1-1.6
			c0-0.6-0.2-1.4,0-1.9c0.3-0.6,1-1.1,1.6-1.4c0.2-0.1,0.7,0.5,1.1,0.8c0.7,0.4,1.3,0.9,2,1.2c0.5,0.2,1.1,0,1.5,0.3
			c2.9,1.6,5.7-0.2,7-2.7c0.8-1.5,1.6-3.1,2.4-4.7c0.3-0.7,0.4-1.4,0.6-2.2c0.2-0.8,0.7-1.6,0.6-2.4c0-1-0.7-2-0.7-2.9
			c0.2-2.4-1.4-3.5-3.1-4.4c-1.7-0.9-3.6-1.6-5.4-2.3c-1.4-0.5-1.5-0.8-0.6-2c0.2-0.3,0.3-0.8,0.4-1.2c0.2-0.9,0.5-1.7,0.7-2.6
			c0.2-0.8,0.5-1.6,0.6-2.4c0.2-1.8,0.4-3.6,0.6-5.3c0.1-0.9,0.7-1.2,1.5-1.2c0.9,0,1.4,0.4,1.5,1.3c0.3,1.8-0.4,3.5-2,4.6
			c-0.4,0.3-0.9,0.7-1,1.1c-0.2,1.3-0.4,2.6-0.4,3.8c0,1.6,0.6,2.9,2.3,3.6c0.9,0.4,1.7,1,2.6,1.4c1,0.4,2.1,0.6,3.2,0.8
			c0.3,0,0.8-0.3,0.9-0.5c0.6-1.3,1.1-2.5,1.5-3.8c0.9-2.7,1-5.5-0.8-7.9c-0.7-1-1.8-1.9-2.9-2.5c-1.3-0.7-1-1.5-0.5-2.5
			c1-2-0.1-4.5-2.3-5c-1.2-0.3-1.6-0.9-1.4-2c0.1-1-0.2-1.8-1.2-2.4c-1-0.6-1.9-1.5-2.7-2.4c-0.3-0.3-0.4-0.8-0.7-1.6
			c0.9,0.3,1.3,0.5,1.5,0.6c0.3-0.6,0.6-1.2,0.8-1.7c0.1-0.2,0.2-0.4,0.2-0.6c-0.2-2-2-3.2-4.2-2.7c1.6,0.6,3.7,0.7,3.3,3.2
			c-0.5-0.1-0.9-0.4-1.2-0.6c-0.7-0.5-1.4-1.1-2.3-1.4c-1-0.3-2-0.3-3.1-0.5c-1.6-0.2-3.3-0.5-4.9-1.8c2.1-0.1,3.9-0.2,5.6,0.6
			c0.5,0.2,1.2,0.2,1.8,0.3c0-0.1,0.1-0.3,0.1-0.4c-0.8-1-2-1.2-3.2-1.3c-2.1-0.1-4.2,0-6.4,0c-0.3,0-0.8-0.1-1-0.3
			c-3.2-4.6-8.2-5-13.1-5c-2.2,0-4.4,0.3-6.5,0.7c-2.7,0.5-5.5,0.9-8,2.4c-0.6,0.3-1.4,0.3-2.1,0.4c-1.4,0.1-2.8-0.1-4.1,0.1
			c-1.7,0.2-2.2,1-2.4,2.7c-0.1,1.3-0.1,2.7-0.6,3.8c-0.6,1.2-0.9,2.3-0.3,3.5c0.1,0.3,0.1,0.9-0.2,1.1c-1,0.9-1.9,0.7-2.6-0.4
			c-0.5-0.8-0.8-1.8-1.2-2.7c-0.2-0.4-0.3-0.9-0.4-1.3c-0.6,1.5-0.3,2.7,0.7,3.8c0.6,0.6,1.1,1.2,1.6,1.9c0.7,0.9,0.9,1.8,0.5,2.9
			c-0.3,0.9-0.5,1.9-0.6,2.9c-0.2,2-0.3,4.1-1.6,5.8c-1,1.3-1.2,2.6-1.2,4.1c0,0.8,0,1.7-0.4,2.3c-1.9,2.9-3.9,5.7-5.9,8.5
			c-1.3,1.9-2.8,3.7-4,5.6c-0.4,0.6-0.7,1.6-0.5,2c0.3,0.6,1.2,1.1,1.9,1.2c1.3,0.3,2.2,1,2,2.3c-0.2,1.7,0.7,3,1.4,4.4
			c0.8,1.7,1.7,3.4,1.9,5.2c0.3,2.2,1.4,3.4,3.3,4.2c1.9,0.9,3.8,0.5,5.7,0.3c0.9-0.1,1.5,0,1.7,0.9c0.2,1,0.3,1.9,0.3,2.9
			C35.1,98.2,35.1,98.2,33.6,97.9z M459.2,22.1c0,40.1,0,80,0,120c-82.9,0.3-165.7,0.5-248.7,0.8c1-1.1,1.8-2,2.7-3
			c-0.1-0.1-0.2-0.3-0.3-0.4c-0.5,0-1.1-0.2-1.6-0.1c-1.4,0.3-2.7,0.8-4.1,1c-2.7,0.5-5.5,1-8.3,1.4c-1,0.1-1.8-0.3-1.8-1.5
			c-0.1-1.1-0.9-1.5-1.8-1.5c-0.8-0.1-1.6-0.1-2.3,0.1c-5.6,1.3-11.1,2.6-16.6,3.9c-0.5,0.1-1.1,0.2-1.6,0.3
			c0.4-0.7,0.9-1.1,1.4-1.5c0.9-0.8,1.7-1.7,1.4-2.9c-0.3-1.2-1.4-1.6-2.5-1.7c-3.4-0.3-6.9-0.6-10.3-0.6c-3.2,0-6.2,0.7-9.1,2.2
			c-2.7,1.4-5.7,2.3-8.6,3.1c-1.3,0.4-3,0.4-4.3-0.1c-1.2-0.4-2.3-0.6-3.5-0.5c-3.7,0.5-7.5,1-11.2,1.5c-1,0.1-2.1,0.1-3.1,0.2
			c1.3-1.7,3.6-2,4.7-4.4c-1.3,0.2-2.2,0.2-3.1,0.4c-6.2,1.4-12.4,2.9-18.7,4.2c-1.6,0.4-3.3,0.4-5,0.6c0-0.1,0-0.2-0.1-0.4
			c0.6-0.2,1.2-0.5,1.8-0.7c3.8-1.1,7.5-2.2,11.3-3.3c0.8-0.2,1.5-0.7,2.3-1.1c-0.1-0.2-0.1-0.3-0.2-0.5c-0.9,0-1.8-0.3-2.7-0.1
			c-3.8,0.8-7.5,1.5-11.2,2.6c-3.8,1.2-7.4,3.2-11.2,4.1c-5.9,1.4-11.9,2.2-17.9,3.2c-1.9,0.3-3.9,0.2-5.8,0.1
			c-1.2-0.1-1.6-0.9-0.9-1.9c0.8-1.3,1.8-2.6,3-3.5c2.4-1.7,4.9-3.2,7.5-4.6c5.8-3.2,11.7-6.2,17.5-9.4c1.4-0.8,2.6-2,3.7-3.2
			c0.9-1,0.6-1.9-0.7-2.2c-1.5-0.3-3.1-0.5-4.6-0.4c-8.9,0.7-17.8,1.9-26.6,3.8c-12.2,2.5-24.1,5.9-35.5,10.6
			c-1.9,0.8-4,1.5-5.8,2.5c-2.7,1.4-5.3,3-8,4.6c-0.3,0.2-0.5,0.7-0.7,1c0.4,0.2,0.7,0.5,1.1,0.7c0.2,0.1,0.5,0.1,0.8,0.1
			c3.2,0,6.4,0,9.6-0.1c1.1,0,2.2-0.2,3.3-0.4c0.3-0.1,0.5-0.5,0.8-0.7c-0.3-0.2-0.5-0.6-0.8-0.7c-1.4-0.1-2.8-0.1-4.3,0
			c-1.2,0-2.4,0.1-3.8,0.2c0.3-0.3,0.4-0.5,0.5-0.6c0.4-0.3,0.7-0.6,1.1-0.9c4.7-2.9,9.7-5.2,14.8-7.1c10.2-3.8,20.7-6.7,31.4-8.6
			c6-1.1,12.2-1.6,18.3-2.4c1.2-0.1,1.6,0.4,1.3,1.5c-0.1,0.5-0.4,1-0.8,1.3c-1.2,1-2.4,2-3.7,2.8c-2.5,1.4-5,2.7-7.6,3.8
			c-4.6,2-9.3,3.9-13.9,5.9c-2.6,1.1-4.6,3-6.1,5.4c-0.9,1.6-0.3,3,1.5,3.3c2.3,0.4,4.7,0.9,7.1,0.7c6.5-0.7,13-1.6,19.5-2.6
			c4.2-0.6,8.2-2,12.7-1.5c4.8,0.5,9.6-0.3,14.2-1.6c1.7-0.5,3.5-0.9,5.3-1.4c-0.4,0.5-0.6,0.8-1.1,1.4c1.4,0.3,2.5,0.9,3.6,0.8
			c4-0.3,7.9-0.7,11.9-1.1c1.1-0.1,2.6-0.6,3.4-0.1c1.2,0.8,2.3,1,3.5,0.8c4.1-0.9,8.3-1.7,12.3-2.8c3.6-0.9,7-2.5,10.6-3.2
			c2.6-0.5,5.4,0,8.1,0.3c1.5,0.2,1.7,1.3,0.6,2.3c-1,0.9-2.1,1.6-3.2,2.3c-0.8,0.5-1.6,1-2.4,1.5c0,0.1,0.1,0.3,0.1,0.4
			c1.7,0,3.4,0.3,5-0.1c5.2-1.2,10.4-2.7,15.7-4c1.2-0.3,2.5-0.5,3.7-0.7c0.7-0.1,1.1,0.1,1.4,0.9c0.3,0.7,1,1.5,1.7,1.7
			c1.1,0.4,2.3,0.5,3.4,0.4c1.8-0.1,3.7-0.5,5.5-0.8c1.2-0.2,2.5-0.3,3.7-0.5c0,0.1,0,0.2,0.1,0.3c-1.3,0.8-2.6,1.6-4.1,2.4
			c1.6,1,2.7,0.7,3.9,0.1c0.7-0.4,1.5-0.7,2.3-0.7c15.9-0.1,31.9-0.1,47.8-0.2c30.7-0.1,61.4-0.2,92.1-0.3
			c36.4-0.1,72.7-0.2,109.1-0.3c0.4,0,0.8,0,1.4,0c0-0.7,0-1.3,0-1.8c0-39.1,0-78.2,0-117.3c0-3.1,0-3.1-3-3.1
			c-115.6,0-231.1,0-346.7,0c-0.4,0-0.8-0.1-1.2,0c-0.2,0-0.4,0.3-0.6,0.5c0.2,0.2,0.4,0.5,0.6,0.6c0.6,0.1,1.2,0,1.8,0
			c115.3,0,230.6,0,345.9,0C457.9,22.1,458.6,22.1,459.2,22.1z M241.6,103.3c-1.9,0-3.8,0-5.7,0c2.3,0.2,1.8,2,1.8,3.3
			c0,2.5-0.1,5,0,7.5c0,1.3-0.3,2.1-1.7,2c0,0-0.1,0.1-0.1,0.3c6.8,0,13.6,0,20.4,0c-1.8-0.7-1.8-0.7-1.8-2.7c0-2.3,0-4.7,0-7
			c0-1.4-0.6-3.2,1.8-3.5c-1.9,0-3.8,0-5.9,0c2,1.2,2,1.2,2,3.1c0,2.2,0,4.4,0,6.6c0,0.9,0,1.8,0,2.7c-1.9,0-3.6,0-5.4,0
			c0-3.3,0-6.5,0-9.7c0-1.4,0.1-2.5,1.9-2.4c0.1,0,0.1-0.2,0.2-0.3c-2.1,0-4,0-6.1,0c0.1,0.2,0.1,0.3,0.2,0.3
			c0.1,0.1,0.2,0.1,0.4,0.1c1.5-0.1,1.6,0.8,1.6,2c0,2.7,0,5.5,0,8.2c0,0.6,0,1.3,0,1.8c-1.9,0-3.6,0-5.4,0c0-3,0-5.9,0-8.8
			C239.9,105.6,239.2,103.7,241.6,103.3z M285.1,116.3c0,0.1,0,0.2,0,0.3c1.9,0,3.8,0,6,0c-2.1-0.9-2.1-0.9-2.1-3c0-2.5,0-4.9,0-7.4
			c0-1.3,0.1-2.4,1.7-2.5c0,0,0-0.1,0.1-0.3c-1,0-2-0.1-3.1,0c-0.4,0-1,0.3-1.2,0.6c-2.3,3.4-4.6,6.9-6.9,10.3
			c-0.2,0.3-0.4,0.5-0.8,1c0-3.3,0-6.2,0-9.1c0-1.3,0.1-2.3,1.7-2.4c0,0,0-0.1,0.1-0.3c-1.9,0-3.8,0-5.7,0c1.8,0.9,1.8,0.9,1.8,3.1
			c0,2.5-0.1,5,0,7.5c0,1.3-0.2,2.3-1.8,2.3c0,0,0,0.1-0.1,0.4c0.9,0,1.8-0.1,2.7,0c1,0.2,1.5-0.3,2-1.1c2.2-3.3,4.4-6.6,6.6-9.9
			c0.1-0.2,0.3-0.3,0.6-0.6c0,3.4,0,6.7,0,9.9c0,0.4-0.6,0.8-1,1.1C285.7,116.3,285.4,116.2,285.1,116.3z M127.8,72.1
			c0,0.1,0,0.1,0,0.2c0.1,0.1,0.3,0.2,0.4,0.2c1.3,0,1.5,0.8,1.5,1.9c0,2.8-0.1,5.6,0,8.5c0,1.3-0.2,2.2-1.7,2.2
			c0,0-0.1,0.1-0.1,0.3c1.9,0,3.8,0,5.4,0c-0.5-0.5-1.4-0.9-1.4-1.5c-0.2-1.6-0.1-3.3-0.1-5c2.7,0,5.3,0,8,0c0,1.4-0.1,2.7,0,3.9
			c0.1,1.4-0.2,2.3-1.8,2.3c0,0,0,0.1-0.1,0.3c1.9,0,3.8,0,5.6,0c-2.2-0.3-1.8-1.9-1.8-3.3c0-2.4,0-4.8,0-7.2c0-1.3,0.1-2.4,1.7-2.5
			c0,0,0-0.1,0.1-0.3c-1.9,0-3.8,0-5.7,0c0.3,0.3,0.7,0.4,0.9,0.5c0.3,0.2,0.8,0.6,0.8,0.9c0.1,1.4,0,2.8,0,4.3c-2.7,0-5.3,0-8,0
			c0-0.8,0-1.6,0-2.3c0-1.4-0.5-3.1,1.8-3.4C131.5,72.1,129.6,72.1,127.8,72.1z M306.4,41c-0.1-0.1-0.2-0.2-0.3-0.4
			c-1.9,0-3.7,0-5.6,0c0.3,0.4,0.6,0.4,0.9,0.6c0.3,0.2,0.8,0.5,0.8,0.8c0.1,1.5,0,2.9,0,4.4c-2.7,0-5.4,0-8,0c0-0.8,0-1.4,0-2.1
			c0.1-1.4-0.6-3.3,1.8-3.6c-1.9,0-3.8,0-5.7,0c0.1,0.3,0.3,0.4,0.4,0.4c1.3-0.1,1.4,0.7,1.4,1.7c0,2.8-0.1,5.6,0,8.5
			c0,1.3-0.1,2.3-1.7,2.3c0,0,0,0.1-0.1,0.2c1.9,0,3.8,0,5.5,0c-0.5-0.5-1.4-0.9-1.5-1.4c-0.2-1.6-0.1-3.3-0.1-5.1c2.7,0,5.3,0,8,0
			c0,1.8,0,3.5,0,5.1c0,0.3-0.5,0.7-0.8,0.9c-0.2,0.2-0.6,0.1-0.9,0.2c0,0.1,0,0.2,0,0.3c1.9,0,3.8,0,5.6,0c-2.1-0.2-1.8-1.7-1.8-3
			c0-2.3,0-4.6,0-6.9C304.3,42.6,303.9,41,306.4,41z M174.8,72.1c0,0.1,0,0.2,0,0.2c0.2,0.1,0.3,0.2,0.5,0.2
			c1.4-0.1,1.6,0.7,1.6,1.9c-0.1,2.7,0,5.4,0,8.1c0,2.1,0,2.1-1.9,2.6c0,0-0.1,0.1-0.2,0.4c1.2,0,2.3,0.1,3.3,0
			c0.4,0,0.9-0.3,1.1-0.6c1.7-2.4,3.3-4.9,5-7.3c0.8-1.2,1.8-2.3,2.8-3.6c0,3.5,0,6.7,0,9.9c0,0.8-0.3,1.2-1.1,1.2
			c-0.2,0-0.4,0.1-0.7,0.2c0,0.1,0,0.2,0,0.2c1.9,0,3.8,0,5.6,0c-0.1-0.3-0.2-0.4-0.4-0.4c-1.4,0.1-1.7-0.7-1.7-1.8
			c0-2.8,0-5.5,0-8.3c0-1.3,0.1-2.4,1.8-2.3c0.1,0,0.2-0.2,0.6-0.5c-1.3,0-2.3-0.1-3.3,0c-0.4,0-1,0.3-1.2,0.6
			c-2.1,3.1-4.1,6.2-6.2,9.2c-0.4,0.7-1.1,1.2-1.8,2c0-3.2,0-6.1,0-9c0-1.3,0-2.5,1.8-2.4c0.1,0,0.2-0.2,0.4-0.4
			C178.8,72.1,176.8,72.1,174.8,72.1z M339.4,42.5c0.1,0.1,0.2,0.1,0.3,0.2c0,2.9,0,5.7,0,8.6c0,1.3-0.1,2.4-1.8,2.4
			c0,0,0,0.1,0,0.3c1.9,0,3.8,0,5.6,0c-0.1-0.3-0.2-0.4-0.4-0.4c-1.4,0.1-1.7-0.7-1.7-1.8c0-2.7,0-5.4,0-8.1c0-2,0-2,1.9-2.6
			c0.1,0,0.1-0.2,0.3-0.5c-1.4,0-2.5,0-3.7,0c-0.2,0-0.5,0.3-0.6,0.5c-2,3-4,6-6,9c-0.5,0.8-1.2,1.4-2,2.4c0-3.3,0-6.2,0-9.2
			c0-1.3,0.2-2.3,1.8-2.3c0.1,0,0.2-0.2,0.5-0.4c-2.2,0-4.1,0-6.1,0c0.1,0.3,0.3,0.4,0.5,0.4c1.4-0.1,1.6,0.7,1.6,1.9
			c-0.1,2.6,0,5.2,0,7.8c0,2.3,0,2.3-2,2.9c0,0,0,0.1,0,0.3c1.3,0,2.5,0,3.8,0c0.1,0,0.3-0.2,0.4-0.3c0.6-0.8,1.2-1.5,1.8-2.3
			C335.4,48.4,337.4,45.4,339.4,42.5z M109.5,85.5c0.9,0,1.8-0.1,2.7,0c0.9,0.1,1.4-0.3,2-1.1c1.9-3,4-6,6-8.9
			c0.4-0.6,0.9-1,1.6-1.7c0,3.1,0,6,0,8.8c0,1.9,0,1.9-1.9,2.3c-0.1,0-0.1,0.2-0.2,0.3c1.9,0,3.8,0,5.7,0c-2.1-0.2-1.8-1.7-1.8-3
			c0-2.5,0-4.9,0-7.4c0-1.3,0.1-2.4,1.7-2.5c0,0,0-0.1,0.1-0.4c-1.1,0-2.2,0-3.3,0c-0.2,0-0.4,0.2-0.6,0.4c-0.9,1.3-1.8,2.6-2.7,3.9
			c-1.7,2.5-3.4,4.9-5.1,7.4c-0.1,0-0.2-0.1-0.3-0.1c0-2.8,0-5.7,0-8.5c0-1.3-0.2-2.7,1.7-2.8c0,0,0-0.1,0-0.3c-1.9,0-3.7,0-5.6,0
			c0.2,0.3,0.4,0.5,0.6,0.5c1.2,0,1.5,0.6,1.5,1.7c-0.1,2.6,0,5.3,0,7.9c0,2.3,0,2.3-2,2.9C109.6,85.1,109.6,85.2,109.5,85.5z
			 M308.9,116.6c-2-0.8-2-0.8-2-3.1c0-2.4,0-4.9,0-7.3c0-1.3,0-2.6,1.9-2.5c0.1,0,0.1-0.2,0.3-0.4c-2,0-3.9,0-5.8,0
			c0.3,0.3,0.6,0.4,0.9,0.5c0.3,0.2,0.8,0.5,0.8,0.9c0.1,1.4,0,2.8,0,4.3c-2.8,0-5.5,0-8.3,0c0-0.8,0-1.5,0-2.2
			c0-1.5-0.5-3.4,2.3-3.2c-0.1-0.1-0.2-0.2-0.3-0.3c-2,0-3.9,0-5.9,0c0.1,0.3,0.3,0.4,0.5,0.4c1.3-0.1,1.6,0.6,1.6,1.8
			c-0.1,2.7,0,5.5,0,8.2c0,2.5,0.1,2.1-2,2.5c0,0-0.1,0.1-0.1,0.3c2,0,4,0,5.9,0c-0.3-0.3-0.7-0.3-0.9-0.4c-0.4-0.3-1-0.7-1-1
			c-0.1-1.6,0-3.3,0-5c2.8,0,5.5,0,8.3,0c0,1.4-0.1,2.6,0,3.9c0.1,1.3-0.2,2.3-1.7,2.3c0,0,0,0.1-0.1,0.3
			C305.2,116.6,307.1,116.6,308.9,116.6z M282.2,40.6c0,0.1,0,0.2-0.1,0.3c0.4,0.1,0.9,0.1,1.3,0.3c0.3,0.2,0.8,0.5,0.8,0.8
			c0.1,1.5,0,2.9,0,4.4c-2.8,0-5.5,0-8.3,0c0-0.8,0-1.4,0-2.1c0.1-1.4-0.6-3.3,1.8-3.6c-1.9,0-3.8,0-5.7,0c0.1,0.3,0.3,0.4,0.5,0.4
			c1.3,0,1.6,0.7,1.6,1.9c-0.1,2.6,0,5.3,0,7.9c0,2.2,0,2.2-2,2.7c0,0,0,0.1-0.1,0.2c1.9,0,3.8,0,5.5,0c-0.6-0.4-1.5-0.8-1.5-1.2
			c-0.2-1.7-0.1-3.4-0.1-5.2c2.8,0,5.5,0,8.3,0c0,1.4-0.1,2.7,0,4c0.1,1.4-0.2,2.3-1.8,2.2c-0.2,0-0.3,0.1-0.5,0.1
			c0.1,0.1,0.2,0.2,0.3,0.3c1.9,0,3.8,0,5.6,0c-2.1-0.2-1.8-1.7-1.8-3c0-2.4,0-4.9,0-7.3c0-1.3,0-2.5,1.7-2.6c0,0,0-0.1,0-0.3
			C286,40.6,284.1,40.6,282.2,40.6z M368.8,85.2c1.9,0.6,3,0.3,4.2-1.2c1.1-1.4,2.1-2.7,3.3-4c0.4-0.5,1-0.8,1.8-1.3
			c-1.5-0.3-2.5-0.5-3.4-0.8c-1.2-0.5-1.8-1.5-1.7-2.8c0.1-1.2,0.8-1.9,1.9-2c1-0.1,2.1,0,3.3,0c0,3.1,0,6.1,0,9.2
			c0,2.3,0,2.3-2,2.9c0,0,0,0.1-0.1,0.2c1.9,0,3.8,0,5.7,0c0.1-0.1,0.2-0.2,0.3-0.3c-2.6,0.3-2.1-1.4-2.1-2.7c0-2.5,0-4.9,0-7.4
			c0-1.3,0-2.5,1.7-2.4c0,0,0-0.1,0.1-0.5c-2,0-4-0.1-5.9,0c-1.1,0.1-2.3,0.4-3.4,0.7c-1.2,0.3-1.6,1.2-1.6,2.4
			c0,1.1,0.3,2.1,1.4,2.7c0.8,0.4,1.7,0.8,2.6,1.2C373,81.2,371.3,83.6,368.8,85.2z M206.9,104.1c2.6,0,5.2,0,7.9,0c0,3,0,5.9,0,8.9
			c0,1.5,0.5,3.4-2,3.5c1.9,0,3.8,0,5.6,0c-2.2-0.1-1.8-1.7-1.8-3.1c0-2.5,0.1-5,0-7.5c0-1.3,0.1-2.3,1.7-2.3c0,0,0-0.1,0.1-0.3
			c-5.2,0-10.3,0-15.5,0c0.2,0.3,0.4,0.5,0.6,0.5c1.3-0.1,1.5,0.7,1.5,1.8c-0.1,2.6,0,5.2,0,7.8c0,2.3,0,2.3-2,2.9c0,0,0,0.1,0,0.2
			c1.9,0,3.8,0,5.6,0c-0.6-0.5-1.5-0.9-1.5-1.3C206.8,111.6,206.9,107.9,206.9,104.1z M244.8,40.6c-0.1,0.1-0.2,0.3-0.2,0.4
			c2.2,0,1.9,1.5,1.9,2.7c0,2.1,0.1,4.2,0,6.2c-0.1,1.3-0.3,2.7-0.5,4.1c1.1,0,2.5,0.1,3.8,0c1.4-0.2,2.8-0.5,4.1-1
			c1.4-0.5,2.2-2.3,2-3.9c-0.2-1.4-0.9-2.1-2.7-2.5c-0.3-0.1-0.6-0.2-1-0.3c0.5-0.2,0.9-0.4,1.3-0.6c1.3-0.6,1.8-1.6,1.7-2.9
			c-0.1-1.4-1-1.9-2.2-2.1c-0.6-0.1-1.3-0.2-1.9-0.2c-1.6,0-3.1,0.1-4.7,0.1C245.9,40.6,245.3,40.6,244.8,40.6z M353.1,85.8
			c4.8,0,7.8-2.8,7.9-7.2c0.1-3.7-1.9-5.9-5.6-6.6c-4.4-0.8-8.3,1.6-9.2,4.3C344.5,81.2,347.8,85.8,353.1,85.8z M306.4,85.4
			c-0.5-0.5-1.4-0.9-1.5-1.5c-0.2-1.5-0.1-3.1-0.1-4.8c0.3,0.2,0.5,0.4,0.7,0.5c2,1.7,3.9,3.4,5.9,5.1c1.1,1,2.4,0.8,3.6,0.7
			c-2.9-2.5-5.7-5-8.8-7.7c3.2-1.6,4.6-5.1,8.4-5.4c0-0.1-0.1-0.2-0.1-0.3c-1.1,0-2.2,0-2.8,0c-2.4,2.3-4.6,4.3-6.7,6.3
			c-0.3-1.1-0.3-1.9-0.3-2.8c0-1.4-0.5-3.2,1.8-3.5c-1.9,0-3.8,0-5.7,0c0,0.2,0,0.2,0.1,0.2c0.1,0.1,0.2,0.2,0.3,0.2
			c1.3,0,1.5,0.8,1.5,1.8c-0.1,2.6,0,5.2,0,7.8c0,2.2,0,2.2-2.1,3.2C302.8,85.4,304.7,85.4,306.4,85.4z M323.9,85.8
			c3.5,0,6-1.4,7.3-4c2-4.3,0-8.9-4.4-9.7c-1.5-0.3-3.1-0.3-4.6,0c-2.4,0.5-4.2,2-5,4.2C315.4,81.2,318.7,85.7,323.9,85.8z
			 M128.6,54.3c3.2,0,5.3-1.2,7.2-3.9c1-1.5,1.1-5.4,0.1-6.9c-2.9-4-7.8-4-11.3-2.1c-2.8,1.6-3.8,4.9-2.8,8.3
			C122.6,52.7,125,54.3,128.6,54.3z M181.5,40.7c-2.1,0-4,0-5.9,0c0.3,0.3,0.6,0.5,1,0.5c1.8,0.2,1.9,0.3,0.8,1.9
			c-2,2.8-4.1,5.6-6.1,8.5c-0.7,1-1.4,2-3,1.5c0.4,1.7,0.7,3.2,1,4.7c0.1,0,0.3,0,0.4,0c0-0.6,0-1.2,0-1.8c0-1.7,0.1-2,1.9-2
			c2.8,0,5.5,0,8.3,0c1.7,0,1.8,0.2,1.8,1.9c0,0.6,0,1.3,0,1.9c0.1,0,0.3,0,0.4,0c0.3-1.5,0.7-3,1-4.5c-0.6-0.1-1.1-0.1-1.6-0.2
			C181.5,48.9,181.5,44.8,181.5,40.7z M264.5,109.1c2.7-2.1,4.6-4.9,8-5.8c-1,0-2,0-2.7,0c-2.3,2.2-4.5,4.3-6.7,6.4
			c-0.1-0.1-0.2-0.2-0.4-0.3c0-1.1,0-2.1,0-3.2c0-1.3-0.1-2.6,1.8-2.5c0.1,0,0.2-0.1,0.3-0.1c0-0.1-0.1-0.2-0.1-0.2
			c-1.9,0-3.8,0-5.7,0c-0.1,0.1-0.2,0.2-0.3,0.3c2.7-0.1,2.1,1.6,2.1,3c0,2.5,0,4.9,0,7.4c0,1.3-0.2,2.2-1.7,2.2
			c0,0-0.1,0.1-0.1,0.3c1.9,0,3.8,0,5.7,0c-0.3-0.3-0.7-0.3-1-0.4c-0.4-0.2-1-0.6-1-0.9c-0.1-1.6,0-3.1,0-5c2.4,2,4.7,3.8,6.8,5.7
			c1.1,0.9,2.2,0.9,3.4,0.7C270.2,114.1,267.4,111.7,264.5,109.1z M416.7,72.1c2.4,0.3,1.8,2.1,1.8,3.5c0,2.2,0,4.3,0,6.5
			c0,1.4,0.5,3.1-1.8,3.3c1.9,0,3.8,0,5.6,0c-0.3-0.3-0.5-0.4-0.8-0.4c-0.8,0-1.2-0.4-1.2-1.2c0-1.5,0-3,0-4.7
			c0.7,0.5,1.3,0.9,1.8,1.3c1.7,1.5,3.5,3,5.2,4.5c1,0.9,2.1,0.7,3.2,0.6c-2.8-2.5-5.6-4.9-8.5-7.5c2.7-2.1,4.6-4.9,8-5.8
			c-1,0-2,0-2.7,0c-2.5,2.1-4.3,4.6-7.1,6.4c0-1.3,0-2.4,0-3.5c0-1.3-0.1-2.6,1.8-2.5c0.1,0,0.2-0.1,0.4-0.4
			C420.5,72.1,418.6,72.1,416.7,72.1z M308.5,40.7c0,0.1,0,0.1,0,0.2c0.1,0.1,0.3,0.2,0.4,0.2c1.2,0,1.5,0.7,1.4,1.7
			c0,2.6,0,5.3,0,7.9c0,2.2,0,2.2-1.8,3.2c2,0.1,4.1,0.2,6.1,0.1c1-0.1,2-0.3,3-0.7c1.6-0.6,2.5-2.3,2.3-3.9
			c-0.1-1.4-0.9-2.2-2.7-2.7c-0.6-0.2-1.2-0.2-1.8-0.3c-1.1-0.1-2.1-0.1-3.2-0.2c0-0.9,0-1.6,0-2.3c0-2.1,0-2.1,1.9-2.9
			c0.1,0,0.1-0.1,0.1-0.3C312.3,40.7,310.4,40.7,308.5,40.7z M397.7,72.1c0,0.1,0,0.1,0,0.2c0.1,0.1,0.3,0.2,0.4,0.2
			c1.2,0,1.5,0.7,1.4,1.7c-0.1,2.6,0,5.2,0,7.8c0,1.4,0.6,3.1-1.9,3.2c0.9,0.2,1.6,0.2,2.4,0.2c2.1-0.1,4.3-0.1,6.4-0.5
			c1.7-0.3,2.8-2.2,2.8-3.9c-0.1-1.6-1-2.6-3-3c-1.1-0.2-2.1-0.2-3.2-0.3c-0.5,0-1-0.1-1.7-0.2c0.7-1.9-1.2-4.7,2.2-5.5
			C401.5,72.1,399.6,72.1,397.7,72.1z M247,85.4c-1.8-0.8-1.8-0.8-1.8-2.9c0-2.5,0-5,0-7.5c0-2,0.4-2.4,2.4-2.2c0.3,0,0.7,0.1,1,0.2
			c1.3,0.4,2,1.3,1.9,2.7c0,1.4-0.7,2.3-2,2.6c-0.7,0.2-1.4,0.2-2.2,0.3c1.6,1.1,4.3,0.1,5.2-1c0.8-1,1.2-2.2,0.8-3.5
			c-0.4-1.2-1.4-1.9-2.7-1.9c-2.7-0.1-5.4-0.1-8.1-0.1c-0.1,0-0.2,0.1-0.3,0.3c0.2,0.1,0.3,0.3,0.5,0.2c1.3,0,1.5,0.8,1.5,1.9
			c0,2.6,0,5.1,0,7.7c0,1.4,0.5,3.1-1.8,3.3C243.3,85.4,245.2,85.4,247,85.4z M207.6,47c0,0.2,0,0.4,0,0.6c0.8,0,1.6,0.1,2.4,0
			c2.1-0.3,3.7-2,3.7-4c-0.1-1.8-1.4-2.9-3.8-3c-0.5,0-1,0-1.6,0c-1.7,0-3.4,0-5,0c-0.3,0-0.5,0.1-1.1,0.2c0.5,0.2,0.6,0.4,0.8,0.4
			c1.2,0,1.4,0.7,1.4,1.7c0,3.1,0,6.2,0,9.3c0,0.8-0.2,1.3-1.2,1.3c-0.2,0-0.4,0.1-0.7,0.2c0,0.1,0,0.2,0,0.2c1.9,0,3.8,0,5.6,0
			c-2.2-0.2-1.8-1.8-1.8-3.1c0-2.6,0-5.1,0-7.7c0-1.6,0.2-1.8,1.9-1.9c0.3,0,0.6,0,0.9,0c1.7,0.2,2.7,1.3,2.6,3
			c-0.1,1.7-1.2,2.7-2.9,2.7C208.4,47,208,47,207.6,47z M260.1,53.9c3,0,6.3,0,9.5,0c0-1.1,0.1-2,0.1-3c-0.1,0-0.2,0-0.4-0.1
			c-0.1,0.4-0.1,0.8-0.3,1.1c-0.3,0.4-0.7,1-1.1,1c-1.8,0.1-3.7,0-5.6,0c0-1.1,0-2.1,0-3.1c0-2.8-0.3-2.3,2.4-2.4
			c1.3-0.1,2.3,0.2,2.4,1.7c0,0,0.1,0,0.3,0.1c0-1.4,0-2.8,0-4.1c-0.2,1.5-1.2,1.7-2.4,1.6c-0.6,0-1.2,0.1-1.8,0
			c-0.3-0.1-0.7-0.5-0.8-0.7c-0.1-1.5,0-2.9,0-4.4c1.6,0,3.1,0,4.5,0c0.8,0,1.3,0.3,1.3,1.2c0,0.3,0.2,0.6,0.4,0.9
			c0.1,0,0.3,0,0.4-0.1c0.1-1,0.2-1.9,0.3-2.9c-3.5,0-6.8,0-10.2,0c-0.1,0.1-0.2,0.2-0.2,0.3c0.2,0,0.3,0.1,0.5,0.1
			c1.2,0,1.3,0.8,1.3,1.7c0,2.9,0,5.9-0.1,8.8C260.6,52.4,260.3,53.1,260.1,53.9z M156.2,116.6c0-0.1,0-0.2,0-0.3
			c-0.2,0-0.4-0.1-0.6-0.1c-1.3-0.2-1.4-0.3-0.9-1.5c1-2.3,1.1-2.4,3.6-2.4c0.6,0,1.2,0.1,1.8,0c1.3-0.2,1.9,0.4,2.3,1.6
			c0.6,1.9,0.7,1.9-1.1,2.7c1.9,0,3.7,0,5.1,0c-0.6-0.8-1.5-1.6-1.9-2.6c-1.6-3.4-3.1-6.8-4.6-10.2c-0.1-0.2-0.4-0.4-0.6-0.6
			c-0.2,0.2-0.5,0.4-0.6,0.7c-1.5,3.2-2.9,6.4-4.5,9.6c-0.6,1.2-0.8,2.7-2.4,3.2C153.3,116.6,154.8,116.6,156.2,116.6z M325.7,116.6
			c-0.5-0.7-1.2-1.2-1.5-1.9c-1.5-3.2-2.9-6.4-4.4-9.6c-0.3-0.7-0.8-1.3-1.1-1.9c-0.5,0.7-1.1,1.3-1.4,2c-1.2,2.6-2.3,5.3-3.5,7.9
			c-0.6,1.4-1.2,2.9-2.9,3.4c1.5,0,3,0,4.5,0c-1.7-0.7-1.7-0.7-1-2.5c0.2-0.4,0.3-0.7,0.5-1.1c0.2-0.3,0.5-0.7,0.8-0.7
			c1.6-0.1,3.2,0,4.8,0c0.2,0,0.4,0.1,0.5,0.2c0.5,1.1,1,2.3,1.5,3.5c-0.8,0.2-1.3,0.3-1.7,0.3c0,0.1,0,0.2,0,0.3
			C322.4,116.6,324.1,116.6,325.7,116.6z M436.9,85.4c0-0.1,0-0.2,0-0.3c-0.3,0-0.7,0-1-0.1c-0.3-0.1-0.7-0.3-0.7-0.5
			c-0.3-1.3,1.5-3.3,2.8-3.3c1,0,1.9,0.1,2.9,0c1.3-0.2,1.9,0.4,2.3,1.6c0.7,1.9,0.7,1.9-1.2,2.7c2,0,3.7,0,5.4,0
			c-1.4-0.5-1.8-1.6-2.4-2.8c-1.5-3.3-3-6.7-4.5-10c-0.1-0.3-0.4-0.5-0.7-0.7c-0.2,0.2-0.4,0.4-0.6,0.6c-1.3,2.8-2.6,5.7-4,8.5
			c-0.8,1.5-0.9,3.6-2.9,4.3C433.9,85.4,435.4,85.4,436.9,85.4z M200.3,53.9c0.1-0.1,0.1-0.2,0.2-0.4c-1.7,0.2-1.9-1-2.4-2
			c-1.5-3.4-3.1-6.9-4.6-10.3c-0.1-0.3-0.4-0.5-0.6-0.7c-0.2,0.2-0.5,0.4-0.6,0.7c-1.5,3.2-2.9,6.4-4.5,9.6
			c-0.6,1.2-0.8,2.7-2.4,3.1c1.4,0,2.8,0,4.2,0c-1.7-0.7-1.6-0.6-1.1-2.4c0.5-1.7,1.4-2.1,3-1.9c0.7,0.1,1.5,0.1,2.2,0
			c1.3-0.2,1.9,0.4,2.3,1.6c0.7,1.9,0.7,1.9-1.2,2.7C196.8,53.9,198.5,53.9,200.3,53.9z M152,41.1c-4.1-1-7.8-1.4-11.3,1.6
			c-1.9,1.6-2.7,6.5-0.5,8.9c3.2,3.4,7.1,3.4,11,2c0.4-0.1,0.7-0.7,0.9-0.9c-1.8,0.2-3.5,0.7-5.2,0.6c-3.9-0.1-6.3-3.4-5.8-7.2
			c0.5-3.9,3.8-5.5,7.5-4.7c1.3,0.3,2.7,0.7,2.7,2.5c0,0,0.1,0.1,0.4,0.2C151.7,43,151.8,42.1,152,41.1z M124,116.6
			c1.1,0,2.3,0,3.4,0c-0.4-0.4-1.1-0.8-1.1-1.2c-0.1-1.8-0.1-3.7-0.1-5.5c0.1,0,0.1,0,0.2-0.1c1.1,2.3,2.2,4.6,3.5,7.3
			c1.4-2.6,2.6-4.9,3.7-7.2c0.3,1.3,0.3,2.5,0.3,3.7c0,1.2,0.4,2.5-1.7,3c1.9,0,3.3,0,4.8,0c-1.3-0.3-1.4-1.4-1.5-2.3
			c-0.1-0.8,0-1.6,0-2.5c0-1.5-0.3-3.1,1.6-3.8c-0.7-0.1-1.3,0-1.9-0.1c-1.1-0.2-1.5,0.3-1.9,1.2c-0.6,1.5-1.4,3-2.1,4.4
			c-0.2,0.3-0.5,0.6-0.8,1c-0.8-1.8-1.6-3.4-2.3-4.9c-0.8-1.8-2-2.2-4.2-1.4c1.6,0.1,1.6,1.1,1.5,2.1c0,1.3,0,2.5-0.1,3.8
			C125.2,115.1,125.5,116.3,124,116.6z M298.7,72.7c-2.4-0.8-4.7-1.2-7.1-0.7c-2.5,0.6-4.7,1.6-5.6,4.2c-0.9,2.5-0.7,5,1.2,7.1
			c2.8,3,8.1,3.2,11.3,1.4c0.2-0.1,0.3-0.5,0.5-1c-0.4,0.1-0.6,0.1-0.8,0.2c-1.5,0.9-3.2,0.9-4.9,0.9c-2.5-0.1-5.1-2.6-5.5-4.5
			c-0.5-2.4-0.3-4.5,1.7-6.2c1.8-1.6,4-1.8,6.2-1.2c1.1,0.3,2.1,0.7,1.9,2.1c0,0.1,0.2,0.3,0.4,0.6
			C298.2,74.5,298.4,73.6,298.7,72.7z M229.5,52.6c-0.1-0.1-0.2-0.3-0.2-0.4c-0.2,0-0.4,0-0.5,0.1c-1.5,1-3.2,1.1-4.9,0.9
			c-2.4-0.2-4.2-1.4-5.3-3.5c-1.1-2.1-1.1-4.4,0.4-6.3c1.6-2.1,3.8-2.8,6.5-2.3c1.4,0.3,2.8,0.6,2.7,2.5c0,0.1,0.2,0.1,0.4,0.3
			c0.1-0.5,0.1-1,0.3-1.4c0.3-1.1,0-1.6-1.2-1.9c-2.8-0.6-5.4-0.6-8.1,0.7c-2.3,1.2-3.3,3-3.5,5.5c-0.2,2.5,0.7,4.7,2.8,6
			c2.5,1.6,5.3,1.8,8.1,1C227.9,53.7,228.6,53.1,229.5,52.6z M385.3,81.4c-0.1,0-0.3,0.1-0.4,0.1c0,0.6,0.1,1.2,0,1.7
			c-0.3,1.5,0.6,2.1,1.8,2.1c1.7,0.1,3.5,0,5.2-0.2c0.7-0.1,1.5-0.7,2-1.3c1.1-1.2,1.3-2.7,0.7-4.2c-0.5-1.4-1.8-1.8-3.2-1.8
			c-0.2,0-0.5-0.1-1-0.2c0.7-0.3,1.1-0.4,1.5-0.6c1.1-0.5,1.7-1.4,1.6-2.7c-0.1-1.2-0.7-2-1.9-2.1c-1.5-0.1-3-0.2-4.5,0
			c-2.1,0.3-2.4,0.9-1.8,3c0.2-0.5,0.4-1,0.6-1.5c0.5-0.9,2.1-1.5,3.3-1.3c1,0.2,1.7,0.7,2,1.8c0.4,1.7-0.7,3.1-2.6,3.1
			c-1.1,0-1.1,0-0.9,0.9c2.8-0.3,4.4,0.4,4.9,2c0.4,1.7-0.4,3.6-2.1,4.3c-0.7,0.3-1.6,0.4-2.4,0.2C386.3,84.6,385.8,83,385.3,81.4z
			 M283,83.9c-0.1-0.1-0.1-0.2-0.2-0.3c-2.1,1.2-4.3,1.4-6.5,0.7c-1.8-0.6-3.4-1.6-4-3.5c-0.8-2.3-0.8-4.6,0.9-6.5
			c1.8-1.9,4.2-2.4,6.8-1.6c1.1,0.3,2.1,0.7,1.9,2.1c0,0.1,0.2,0.3,0.4,0.6c0.2-1.2,0.3-2.1,0.4-3c-3.1-1.2-5.8-1.2-8.7-0.1
			c-4.6,1.7-5.7,8.2-1.9,11.4c2.4,2,7.1,2.5,9.9,1C282.4,84.7,282.7,84.3,283,83.9z M159,72.6c-2.8-1-5.5-1.2-8.3-0.2
			c-2.5,0.8-4,2.5-4.4,4.9c-0.5,2.7,0,5.3,2.5,6.9c3,2.1,6.3,2,9.6,0.7c0.4-0.2,0.6-0.7,0.9-1c-2.8,0.9-4.9,1.1-6.8,0.5
			c-2.7-0.9-4.3-2.9-4.4-5.8c-0.1-2.8,1-4.6,3.5-5.6c1.7-0.7,3.3-0.5,5.1-0.1c1.4,0.3,1.3,1.6,2,2.7C158.7,74.4,158.8,73.6,159,72.6
			z M188.6,115.1c-0.1-0.1-0.2-0.2-0.3-0.3c-1.6,1.1-3.3,1.2-5.1,1c-5.6-0.7-6.9-5.7-5.1-9.4c1.1-2.4,4.6-3.4,7.6-2.4
			c1,0.3,1.9,0.7,1.7,2c0,0.1,0.2,0.3,0.4,0.8c0.2-1.3,0.3-2.2,0.4-3.2c-2.7-0.9-5.2-1.1-7.9-0.4c-2.8,0.8-4.5,2.5-4.9,5.4
			c-0.5,3,0.4,5.6,3.2,7.1c2.9,1.6,6,1.6,9,0.2C188.1,115.9,188.3,115.5,188.6,115.1z M161.7,48.7c-1.2-2.2-2.3-4.1-3.3-6
			c-0.4-0.7-0.5-1.3,0.6-1.5c0.2,0,0.4-0.1,0.6-0.2c-0.1-0.1-0.2-0.2-0.3-0.3c-1.7,0-3.4,0-5,0c1.8,0.5,2.1,2.1,2.9,3.4
			c1.1,2,2.2,4,3.3,5.9c0.1,0.3,0.2,0.8,0,0.9c-0.4,0.5-0.9,0.9-1.4,1.2c-0.7,0.5-1.3,0.3-1.8-0.3c-0.2-0.2-0.4-0.5-0.8-1
			c0.1,0.9,0.1,1.4,0.2,1.8c0.1,0.5,0.4,1.4,0.6,1.4c0.7,0.1,1.5-0.1,2-0.5c0.7-0.5,1.1-1.3,1.6-2c2.3-3.6,3.3-8,6.9-11
			c-1.6,0-2.9,0-4.3,0c0.2,0.4,0.5,0.4,0.6,0.6c0.2,0.3,0.6,0.8,0.5,1.1C163.6,44.4,162.7,46.4,161.7,48.7z M256.7,82.5
			c0.1,0.9,0.2,1.5,0.2,2.2c0,0.8,0.4,1,1.1,1.1c1.4,0.1,2.1-0.7,2.7-1.8c2.3-4,4.1-8.2,7.1-11.8c-1.3,0-2.5,0-4.2,0
			c0.5,0.3,0.7,0.5,0.9,0.6c0.7,0.2,0.9,0.6,0.6,1.2c-1,2-2,4-3.1,6.3c-0.9-1.9-1.8-3.5-2.6-5.2c-0.8-1.7-0.8-1.7,0.8-2.8
			c-1.9,0-3.6,0-5.5,0c0.7,0.5,1.4,0.8,1.7,1.3c1.5,2.6,3,5.2,4.4,7.9c0.2,0.3,0.1,1-0.1,1.4C259.5,84.3,258.5,84.3,256.7,82.5z
			 M233.6,103.3c-1.1,0-2.3,0-4,0c0.5,0.3,0.6,0.5,0.9,0.6c0.7,0.2,0.9,0.6,0.6,1.2c-1,2-2,4.1-3.1,6.4c-1.1-2.3-2.1-4.3-3.1-6.3
			c-0.3-0.7-0.2-1.1,0.5-1.3c0.2-0.1,0.3-0.3,0.7-0.5c-1.9,0-3.6,0-5.4,0c0.7,0.6,1.4,1,1.7,1.6c1.4,2.3,2.7,4.7,4,7.1
			c0.7,1.2,0.5,1.9-0.7,2.7c-0.9,0.6-1.7,0.4-2.5-0.6c-0.1-0.1-0.3-0.2-0.6-0.5c0.1,0.7,0.2,1.2,0.2,1.7c0.1,1.4,1,2,2.4,1.3
			c0.5-0.3,1-0.8,1.3-1.4c1.5-2.6,2.9-5.2,4.3-7.7C231.7,106.1,232.7,104.8,233.6,103.3z M208.6,82.5c0.1,0.8,0.2,1.3,0.2,1.8
			c0.1,1.3,1,1.9,2.2,1.3c0.5-0.2,1-0.6,1.2-1.1c1-1.5,1.8-3,2.8-4.5c1.7-2.6,2.1-6,5.4-7.9c-1.7,0-3.1,0-4.5,0
			c0.4,0.8,1.8,0.5,1.3,1.6c-0.8,1.9-1.6,3.7-2.5,5.6c-0.1,0.3-0.4,0.4-0.7,0.7c-0.8-1.7-1.6-3.2-2.4-4.7c-0.5-1.1-1.6-2.3,0.4-3.1
			c-1.7,0-3.4,0-5.1,0c0.7,0.6,1.3,1,1.7,1.6c1.4,2.3,2.6,4.7,4,7.1c0.7,1.2,0.3,1.9-0.6,2.6c-0.9,0.7-1.7,0.6-2.3-0.3
			C209.3,82.9,209.1,82.8,208.6,82.5z M117.8,109.3c0.1,0,0.2,0.1,0.3,0.1c0,1.1,0,2.2,0,3.4c-0.1,1.4,0.6,3.1-1.4,3.7
			c1.6,0,3.1,0,5.1,0c-2.1-0.9-2.1-0.9-2.1-3c0-1,0.1-1.9,0-2.9c-0.1-1.3,0.2-2.3,1.7-2.5c0,0,0-0.1,0-0.4c-0.6,0-1.3,0.1-1.9,0
			c-1.1-0.2-1.6,0.3-2.1,1.2c-1.2,2-2.5,3.9-3.8,5.8c-0.1,0.1-0.2,0.2-0.5,0.4c0-1.5,0-2.7,0-4c0-1.2-0.4-2.7,1.4-3.4
			c-1.5,0-3,0-4.7,0c1.8,1.3,1.8,1.3,1.8,3.7c0,0.6,0,1.2,0,1.8c0,1.3,0.1,2.6-1.7,2.9c0,0,0,0.2,0,0.3c0.6,0,1.3-0.1,1.9,0
			c1.1,0.2,1.7-0.3,2.2-1.3C115.1,113.3,116.5,111.4,117.8,109.3z M344.6,72.1c-3.6,0-7,0-10.4,0c0.2,0.3,0.5,0.5,0.7,0.5
			c0.7,0,1,0.4,1,1.1c0,3.4,0,6.8,0,10.1c0,0.4-0.6,0.8-1,1.1c-0.2,0.2-0.5,0.2-0.7,0.2c0,0.1,0,0.1,0,0.2c1.9,0,3.8,0,5.6,0
			c-1.8-0.7-1.8-0.7-1.8-2.7c0-2,0-4,0-6c0-1.2,0-2.5,0-3.8c0.9,0,1.6,0,2.2,0c1.6,0,3.4-0.5,3.9,2
			C344.4,73.9,344.5,73.1,344.6,72.1z M201.7,85.4c-1.8-0.1-2.1-1.4-2.1-2.7c0-3.3-0.4-6.5,0.4-9.7c2.5-0.4,2.6-0.3,3.9,1.9
			c0.1,0.1,0.3,0.3,0.4,0.2c0.2-0.1,0.4-0.3,0.4-0.4c0-0.8,0-1.7,0-2.6c-4,0-8,0-12,0c0.1,1.1,0.2,2,0.3,2.9
			c0.9-2.2,0.9-2.2,3.4-2.2c0.4,0,0.8,0,1.4,0.1c0,3.3,0,6.5,0,9.8c0,1.3-0.1,2.4-1.8,2.4c0,0,0,0.1-0.1,0.3
			C197.9,85.4,199.8,85.4,201.7,85.4z M173.2,72.1c-4,0-7.9,0-11.9,0c0.1,1,0.2,2,0.3,3.3c0.8-1.1,0-2.6,1.6-2.5c1,0,1.9,0,3.1,0
			c0,3.3,0,6.5,0,9.6c0,2.1,0,2.1-2,2.6c0,0-0.1,0.1-0.1,0.3c2,0,4,0,6,0c-2.1-0.7-2.1-0.7-2.1-2.7c0-1.7,0-3.4,0-5.1
			c0-1.5,0-3.1,0-4.6c1.3,0,2.3,0,3.3,0c1.6,0,0.6,1.7,1.6,2.2C173,74.1,173.1,73.2,173.2,72.1z M240.2,53.9c0-0.1,0-0.2,0-0.3
			c-0.4,0-0.8,0-1.1-0.2c-0.4-0.2-0.9-0.6-0.9-0.9c-0.1-3.7,0-7.3,0-11.1c1.1,0,2.1,0,3.1,0c1.6-0.1,0.7,1.6,1.6,2.4
			c0.1-1.2,0.1-2.1,0.2-3.2c-4,0-7.9,0-11.9,0c0.1,1.1,0.2,2,0.2,3.2c0.3-0.3,0.4-0.4,0.4-0.5c0.4-1.9,0.4-1.9,2.3-1.9
			c0.6,0,1.2,0,1.8,0c0.1,0.7,0.2,1.3,0.2,1.8c0,2.5,0,5,0,7.5c0,2.3,0,2.3-2.2,3.2C236.4,53.9,238.3,53.9,240.2,53.9z M221.4,72.1
			c0.1,1,0.2,2,0.3,2.9c0.1,0,0.2,0,0.4,0c0.3-0.8-0.3-2.2,1.3-2.2c1,0,1.9,0,3.1,0c0,3.4,0,6.7,0,10c0,1.3-0.2,2.2-1.8,2.2
			c0,0-0.1,0.1-0.1,0.3c2,0,3.9,0,5.8,0c-0.4-0.3-0.8-0.3-1.1-0.4c-0.4-0.2-0.9-0.6-0.9-0.9c-0.1-3.7,0-7.3,0-11.2
			c1.3,0.1,2.6,0,3.7,0.3c0.4,0.1,0.5,1.3,0.8,1.9c0.1,0,0.2,0,0.2,0c0.1-0.9,0.1-1.9,0.2-2.9C229.3,72.1,225.4,72.1,221.4,72.1z
			 M115.1,53.9c0-0.1,0-0.1,0-0.2c-0.1-0.1-0.3-0.2-0.4-0.2c-1.2,0.1-1.5-0.5-1.4-1.6c0-2.9,0-5.9,0-8.8c0-0.5,0-1.1,0-1.7
			c1.5,0,2.9,0,4.2,0c0.8,0,1.3,0.4,1.4,1.2c0,0.3,0.2,0.5,0.3,0.7c0.1,0,0.2,0,0.2,0c0.1-0.9,0.2-1.7,0.3-2.6c-3.5,0-7,0-10.4,0
			c0.1,0.3,0.3,0.5,0.5,0.5c1.5-0.1,1.5,0.9,1.5,1.9c0,2.6,0,5.3,0,7.9c0,2.1,0,2.1-2,2.6c0,0,0,0.1,0,0.3
			C111.4,53.9,113.3,53.9,115.1,53.9z M414.4,72.2c-1.9,0-3.8,0-5.7,0c1.8,0.9,1.8,0.9,1.8,3c0,2.3,0,4.7,0,7c0,2.3,0,2.3-2.2,3.1
			c2.2,0,4.2,0,6.1,0c-1.9-0.8-1.9-0.8-1.9-3c0-2.4,0-4.8,0-7.1C412.6,73,412.6,73,414.4,72.2z M319.5,40.7
			c-0.1,0.1-0.1,0.3-0.2,0.4c2.2-0.2,2,1.3,2,2.6c0,2.3,0,4.7,0,7c0,1.4,0.4,3.1-1.9,3.3c1.9,0,3.8,0,5.8,0c-1.9-0.8-1.9-0.8-1.9-3
			c0-2.5,0-4.9,0-7.4c0-1.3,0-2.5,1.8-2.5c0,0,0.1-0.1,0.1-0.3C323.3,40.7,321.4,40.7,319.5,40.7z M95,75.9c-0.4-0.9-1-1.9-1.1-2.8
			c-0.1-1,0.5-2,0.8-3.3c-1.5,0.8-1.7,2-1.8,3C92.7,74.3,93.8,75.2,95,75.9z M333.1,37.5c1.2,1.9,3.4,2.2,5,0.8
			c0.3-0.3,0.3-0.8,0.4-1.1c-0.8,0.5-1.6,1.4-2.3,1.3c-0.8,0-1.5-0.9-2.5-1.4C333.7,37,333.4,37.3,333.1,37.5z M170.9,114.2
			c-0.6,0.7-1,1.1-1.3,1.6c0.5,0.4,0.9,1,1.4,1c0.4,0,1-0.7,1.1-1.1C172.1,115.3,171.5,114.9,170.9,114.2z M141.6,114.2
			c-0.6,0.7-1,1.1-1.4,1.5c0.4,0.4,0.8,1,1.3,1.1c0.3,0.1,1.1-0.6,1.1-1.1C142.7,115.4,142.1,114.9,141.6,114.2z M192.6,114.1
			c-0.6,0.8-1.2,1.2-1.1,1.6c0,0.4,0.6,1,1.1,1.1c0.3,0.1,1-0.6,1-1C193.7,115.4,193.1,114.9,192.6,114.1z"/>
		<path d="M33.6,97.9c1.5,0.2,1.6,0.2,1.5-1.4c0-1-0.1-2-0.3-2.9c-0.2-0.9-0.8-1-1.7-0.9c-1.9,0.2-3.8,0.6-5.7-0.3
			c-1.9-0.9-3-2-3.3-4.2c-0.2-1.8-1.1-3.5-1.9-5.2c-0.7-1.4-1.6-2.7-1.4-4.4c0.1-1.3-0.7-2.1-2-2.3c-0.7-0.1-1.6-0.6-1.9-1.2
			c-0.2-0.5,0.1-1.5,0.5-2c1.3-1.9,2.7-3.7,4-5.6c2-2.8,4-5.6,5.9-8.5c0.4-0.6,0.4-1.5,0.4-2.3c0-1.5,0.2-2.8,1.2-4.1
			c1.3-1.7,1.4-3.7,1.6-5.8c0.1-1,0.2-2,0.6-2.9c0.4-1.1,0.3-2-0.5-2.9c-0.5-0.6-1-1.3-1.6-1.9c-1-1.1-1.3-2.3-0.7-3.8
			c0.1,0.4,0.2,0.9,0.4,1.3c0.4,0.9,0.7,1.9,1.2,2.7c0.7,1.1,1.7,1.3,2.6,0.4c0.2-0.2,0.3-0.8,0.2-1.1c-0.6-1.3-0.2-2.3,0.3-3.5
			c0.5-1.1,0.5-2.5,0.6-3.8c0.2-1.7,0.7-2.5,2.4-2.7c1.4-0.2,2.8,0,4.1-0.1c0.7,0,1.5,0,2.1-0.4c2.5-1.5,5.3-1.9,8-2.4
			c2.2-0.4,4.4-0.8,6.5-0.7c4.9,0.1,9.9,0.4,13.1,5c0.2,0.2,0.6,0.3,1,0.3c2.1,0,4.2-0.1,6.4,0c1.2,0,2.4,0.3,3.2,1.3
			c0,0.1-0.1,0.3-0.1,0.4c-0.6-0.1-1.2-0.1-1.8-0.3c-1.7-0.8-3.5-0.7-5.6-0.6c1.6,1.3,3.2,1.6,4.9,1.8c1,0.1,2.1,0.2,3.1,0.5
			c0.8,0.3,1.5,0.9,2.3,1.4c0.4,0.2,0.7,0.5,1.2,0.6c0.4-2.5-1.7-2.6-3.3-3.2c2.3-0.6,4.1,0.6,4.2,2.7c0,0.2-0.1,0.4-0.2,0.6
			c-0.2,0.5-0.5,1.1-0.8,1.7c-0.2-0.1-0.7-0.3-1.5-0.6c0.3,0.8,0.4,1.3,0.7,1.6c0.9,0.9,1.7,1.7,2.7,2.4c0.9,0.6,1.3,1.3,1.2,2.4
			c-0.1,1.1,0.2,1.7,1.4,2c2.2,0.5,3.3,3,2.3,5c-0.5,1-0.8,1.8,0.5,2.5c1.1,0.6,2.2,1.5,2.9,2.5c1.8,2.4,1.7,5.2,0.8,7.9
			c-0.4,1.3-1,2.6-1.5,3.8c-0.1,0.3-0.6,0.6-0.9,0.5c-1.1-0.2-2.2-0.4-3.2-0.8c-0.9-0.3-1.7-1-2.6-1.4c-1.6-0.7-2.3-1.9-2.3-3.6
			c0-1.3,0.1-2.6,0.4-3.8c0.1-0.4,0.6-0.9,1-1.1c1.6-1,2.3-2.8,2-4.6c-0.2-0.9-0.7-1.3-1.5-1.3c-0.8,0-1.4,0.3-1.5,1.2
			c-0.2,1.8-0.3,3.6-0.6,5.3c-0.1,0.8-0.4,1.6-0.6,2.4c-0.2,0.9-0.5,1.7-0.7,2.6c-0.1,0.4-0.2,0.9-0.4,1.2c-0.9,1.2-0.8,1.5,0.6,2
			c1.8,0.7,3.7,1.4,5.4,2.3c1.7,0.9,3.3,2,3.1,4.4c-0.1,1,0.6,2,0.7,2.9c0,0.8-0.4,1.6-0.6,2.4c-0.2,0.7-0.3,1.5-0.6,2.2
			c-0.7,1.6-1.6,3.1-2.4,4.7c-1.3,2.5-4.1,4.3-7,2.7c-0.4-0.2-1-0.1-1.5-0.3c-0.7-0.3-1.4-0.7-2-1.2c-0.4-0.2-0.9-0.8-1.1-0.8
			c-0.6,0.4-1.3,0.8-1.6,1.4c-0.3,0.5,0,1.3,0,1.9c0,0.5,0.1,1.1-0.1,1.6c-0.5,1.9-0.1,2.6,1.7,3.3c0.3,0.1,0.6,0.2,0.8,0.3
			c0,0.1,0.1,0.3,0,0.3c-1.3,1.2-0.7,2.3,0.3,3.4c1.1,1.2,2.1,2.5,3.1,3.8c0.1,0.1,0.1,0.3,0.2,0.7c-0.5,0-0.9,0.1-1.3,0.1
			c-6.9-0.6-13.7,0.1-20.3,2.4c-1.8,0.6-3.5,1.5-5.1,2.5c-2.8,1.6-5.6,3.4-8.4,5.1c-0.2,0.1-0.4,0.3-0.6,0.5c-3,2.8-6.1,5.5-8.5,8.9
			c-0.8,1.2-1.7,2.2-2.6,3.4c-0.4,0.6-0.7,1.2-1.2,1.9c-1.5-1.8-2.8-1.5-4.1-1c-5.4,2.3-9.7,5.7-12.4,11c-0.3,0.7-1.1,1.4-1.8,1.5
			c-2.3,0.3-3.9,1.8-5.5,3.1c-0.5,0.4-1.3,0.8-2,0.8c-1.3,0-1.9-1.1-1.3-2.5c1.6-3.9,3.2-7.9,4.9-11.8c1-2.3,2.1-4.6,3.5-6.7
			c1.8-2.7,3.9-5.1,5.8-7.7c0.3-0.4,0.4-1,0.4-1.6c0.1-1,0.1-2,0.2-3.2c-1.7,1.3-3.3,2.7-6,1.7c1.1-1,2-1.8,2.8-2.6
			c0,0,0.1,0.1,0.1,0.1c-0.3,0.6-0.6,1.2-0.9,1.9c1.5,0.2,1.1-1.2,1.7-1.9c0.2,0.4,0.4,0.8,0.6,1.1c0.7-0.3,1.4-0.5,2.1-0.9
			c0.3-0.2,0.5-0.7,0.7-0.9c0.2-0.2,0.6-0.3,0.9-0.5c0,0.3,0.1,0.8-0.1,1c-1.3,1.1-1.4,2.5-1.1,4.2c0.8-0.9,1.9-1.3,1.2-2.8
			c-0.1-0.2,0.3-0.7,0.5-1.3c0.3,0.6,0.4,0.9,0.6,1.2c2-1.8,3.9-3.7,5.8-5.5c0.8-0.8,1.7-1.4,2.5-2.2C34.7,99.9,34.7,99.2,33.6,97.9
			L33.6,97.9z M71.4,68.7c-2.1-0.9-3.3-0.6-3.7,1.2c-0.2,0.8,0,1.7,0.3,2.5c0.5,1.1,1.3,1.2,2,0.2c0.5-0.7,0.9-1.5,1.3-2.2
			c0.2-0.5,0.3-1,0.4-1.5c0.6-0.1,1.5-0.1,1.6-0.4c0.4-0.8,1-0.9,1.8-1.1c2.3-0.7,4.9-1,6.2-3.5c0.7-1.3,0.7-1.8-0.6-2.7
			c-2.4,2.4-5.4,3.6-8.4,5C70.2,67,70.2,66.9,71.4,68.7z M79.9,40.2c0.2,0.9,0.3,1.8,0.5,3c0.8-0.6,1.3-0.9,1.6-1.4
			c0.3-0.5,0.4-1.1,0.7-1.6c0.3-0.6,0.4-1-0.3-1.2c-0.6-0.1-1.2,0-1.8,0c0.2,0.8,0.4,1.3,0.6,2.3C80.6,40.8,80.2,40.5,79.9,40.2
			c-0.4-0.9-1.2-1.4-2.1-1.2c-2,0.5-2.4,1-2.4,2.3c0,0.6,0,1.1,0,1.7c-0.1,0-0.3,0.1-0.4,0.1c-0.1-0.5-0.2-1.1-0.3-1.6
			c-0.1-0.3-0.4-0.6-0.6-0.9c-0.3,0.3-0.8,0.5-0.8,0.8c-0.1,0.8-0.1,1.6,0,2.4c0.7,2.7,1.1,5.3-0.1,8c-0.4,0.9,0.1,1.7,0.7,2.4
			c0.6,0.7,1.4,0.6,2,0.2c2-1.1,4-2.4,4.9-4.7c0.6-1.6,1.1-3.2,1.6-4.8c0.1-0.4,0-0.9,0-1.4c-0.6,0-1.2-0.1-1.7,0.1
			c-0.6,0.2-1,0.8-1.5,1.2c-0.4,0.3-0.9,0.6-1.3,0.9c-0.1-0.1-0.2-0.3-0.3-0.4c0.6-0.7,1.2-1.3,1.7-2c-0.1-0.7-0.3-1.5-0.3-2.3
			C79.1,40.7,79.6,40.5,79.9,40.2z M73.1,58.5c-0.1,0.2-0.1,0.4-0.2,0.6c-1.1-0.3-2.3-0.4-3.2-0.9c-1.7-1-3.3-2.2-4.9-3.3
			c-0.6-0.4-1.2-1-1.9-1.4c-0.9-0.5-1.7-0.1-2.1,0.7c-0.5,0.8,0.4,1,0.8,1.4c1.3,1,2.4,2.2,3.8,3.4c-0.8,0.3-1.2,0.4-1.6,0.6
			c-0.3,0.2-0.6,0.5-0.9,0.8c0.3,0.1,0.7,0.3,1,0.3c0.7,0.1,1.5,0,2.2,0c0,0.1,0,0.3,0,0.4c-0.7,0.1-1.5,0.2-2.2,0.3
			c-0.4,0.1-0.7,0.4-1.1,0.6c0.2,0.3,0.4,0.9,0.7,1c0.7,0.2,1.7,0.4,2.3,0.2c0.9-0.4,1.5-1.2,2.5-2c-0.2,0.8-0.4,1.4-0.5,2
			c0.1,0.1,0.2,0.1,0.3,0.2c0.7-0.9,1.4-1.7,2.1-2.6c0.1,0.1,0.2,0.1,0.4,0.2c-0.7,1.4-1.4,2.8-2.2,4.1c-0.2,0.3-0.6,0.5-1,0.6
			c-1.7,0.4-3.4,0.6-5-0.3c-0.5-0.3-1.2-0.4-1.7-0.3c-1.1,0.2-2.1,0.7-3.2,1.1c0,0.1,0,0.3,0.1,0.4c1,2.1,0.8,2.3-1.1,3.4
			c-1.2,0.7-2.2,1.5-3.3,2.3c0.1,0.1,0.1,0.3,0.2,0.4c0.3,0,0.7,0.2,1,0.1c1.3-0.2,2.5-0.5,3.8-0.7c2.4-0.2,4.8-0.3,7-0.5
			c0.8-1.1,1.7-2.4,2.7-3.6c1.1-1.3,2.1-2.4,4-2.5c0.9,0,1.7-0.7,2.6-1.1c0.7-0.3,1.3-0.7,1.9-1c1.7-0.8,3.1-1.8,3.7-3.7
			c0.2-0.6,0.6-1.2,1.1-1.6c0.7-0.6,1.4-1,1.2-2.1c0-0.2-0.5-0.5-0.5-0.4c-0.7,0.5-1.5,0.9-2,1.6c-0.5,0.6-0.6,1.4-1,2.1
			c-0.6,0.9-1.5,0.9-2,0c-0.4-0.8-0.7-1.6-1.1-2.4c-0.1-0.3-0.3-0.6-0.6-0.8c-0.7-0.5-1.5-0.9-2.2-1.5c-0.8-0.8-1.6-1.3-2.7-0.4
			c-0.2,0.1-0.5,0.1-0.8,0.1c-0.1-0.1-0.2-0.2-0.3-0.3c2.3-0.7,3.1-2.5,3.7-4.5c-1.6,0.2-2.9,2.1-5,1c1.3-0.4,2.4-0.7,3.4-1.1
			c0.3-0.2,0.6-0.8,0.7-1.2c0-0.6-0.4-1-1.1-0.9c-0.5,0.1-1,0.3-1.5,0.3c-1.2,0-2.5,0.2-3.6-0.2c-1.5-0.5-2-0.6-3.1,0.6
			c-0.8,0.8-1.6,1.7-2.4,2.5c-0.1-0.1-0.2-0.2-0.3-0.3c0.6-0.6,1.1-1.3,1.8-1.9c0.8-0.7,1.3-2.5,0.8-3.6c-0.5-1.2-1.6-1.1-2.6-0.9
			c-1.6,0.4-3.1,1-4.7,1.5c0.1-0.1,0.1-0.4,0.3-0.5c1.2-0.6,2.4-1.1,3.6-1.6c0.7-0.3,1.5-0.5,2.2-0.9c0.2-0.1,0.2-0.7,0.2-1.1
			c-0.1-0.4-0.3-0.7-0.6-1c-0.7-0.9-1.5-1.5-2.8-1.2c-1,0.2-2.2,0-3.3-0.2c-0.5-0.1-1.1-0.6-1.3-1c-0.1-0.2,0.5-0.8,0.8-1.2
			c0.1-0.1,0.2-0.2,0.4-0.4c-2.1-0.2-2.1-0.2-2.7-1c0.6-0.1,1.2-0.1,1.8-0.2c-0.1-0.5-0.2-1.1-0.3-1.7c0.4-0.2,0.9-0.4,1.5-0.7
			c-0.4-1.1-1.1-1.6-2.1-1.4c-0.9,0.2-1.7,0.6-1.6,1.8c0,0.6-0.1,1.3-0.3,1.9c-0.2,0.6-0.6,1-0.9,1.5c-0.2-0.1-0.3-0.2-0.5-0.3
			c0.2-0.5,0.5-1,0.7-1.6c0.6-1.4,0.9-2.7-0.1-4.1c-1-1.3-2.2-0.7-3.4-0.2c-0.1,0-0.2,0.1-0.3,0.1c-0.1,0.7-0.2,1.4-0.4,2.4
			c-0.3-0.5-0.4-0.7-0.6-0.9c-0.3-0.4-0.6-0.7-0.9-1.1c-0.3,0.4-0.6,0.8-0.8,1.3c-0.3,0.6-0.4,1.3-0.5,2c-0.5-0.8-0.4-2-1.8-1.7
			c-0.2,0.8-0.5,1.7,0.6,2.2c0.1,0.1,0.2,0.5,0.2,0.7c-0.2,0.7-0.4,1.3-0.7,2c-0.5,0.9-0.3,1.5,0.7,1.7c0.5,0.1,0.9,0.3,1.4,0.2
			c0.3,0,0.8-0.3,0.9-0.5c0.1-0.2-0.2-0.8-0.4-0.9c-0.6-0.4-0.6-0.8-0.2-1.3c0.7-0.8,1.3-1.6,2-2.4c0.8-0.9,2.3-1.2,3.3-0.7
			c-4.3,3.1-4.3,3.1-4.2,4.4c0.5-0.4,0.9-0.8,1.3-1.2c0.1,0.1,0.2,0.2,0.4,0.2c-0.2,0.6-0.6,1.2-0.7,1.8c-0.1,0.6-0.2,1.3,0.1,1.8
			c0.1,0.2,1,0.1,1.5,0.1c0.3,0,0.9,0,0.9,0.1c0.4,1.3,0.9,0.4,1.5,0.1c1-0.5,2-0.8,3-1.2c0.1,0.2,0.2,0.4,0.3,0.5
			c-0.4,0.4-0.7,0.9-1.2,1.1c-1.2,0.6-2.4,1.2-3.6,1.7c-0.8,0.4-1.3,0.9-1.2,1.7c-0.4,0.3-0.7,0.5-1.1,0.7c0.1,0.1,0.1,0.3,0.2,0.4
			c1.3-0.6,2.6-1.2,4-1.9c-0.6,1.4,0.2,1.7,1.2,1.9c0.3,0.1,0.5,0.3,0.8,0.5c-0.2,0.2-0.5,0.3-0.7,0.5c-0.3,0.3-0.7,0.6-0.8,1
			c-0.8,2.1-3.8,3.1-5.4,1.6c-0.6-0.6-0.7-1.8-1.1-2.8c-0.1-0.3-0.1-0.9-0.3-1c-1.5-0.6-3-1.1-4.4-1.6c-0.8,1.4-1.4,1.5-2.6,0.5
			c-0.6-0.5-1-1.1-1.5-1.7c-0.9-1.2-3.2-1-4,0.3c-0.8,1.3-0.4,4.6,0.7,5.8c-0.3,0.3-0.7,0.5-0.9,0.8c0.8,0.4,1.5,0.7,2.2,1
			c-0.1,0.1-0.1,0.3-0.2,0.4c-0.8,0-1.8-0.3-2.5,0.1c-0.7,0.4-0.9,1.4-1.5,2.3c5.1-1,6.3-1,7.6-0.2c-0.7,0.1-1.3,0.2-1.9,0.3
			c-1.1,0.1-2.3,0.1-3.4,0.3c-2.1,0.4-3.6,1.5-3.6,3.2c0.1,2.5-1.1,4.4-2.3,6.4c-2.2,3.6-4.7,7-7.5,10.2c-0.4,0.4-0.2,1.2-0.4,1.9
			c0.5-0.2,1.3-0.3,1.6-0.7c1-1.2,2-1.8,3.6-1c0.8,0.4,1.3,0.1,1-0.9c-0.1-0.2-0.1-0.5-0.1-0.7c0.9-0.3,1.3,0,1.3,0.8
			c0,0.8-0.1,1.7-0.1,2.6c-1.4-0.2-3-0.4-4.7-0.6c0,0.3-0.1,0.6,0.1,0.8c0.9,1,0.9,2.1,0.8,3.4c0,0.3,0.5,0.9,0.9,1.1
			c0.5,0.2,1.2,0.2,1.8,0c1.4-0.3,2.7-0.7,4.1-1c0.4,1.1-0.3,1.5-1,1.7c-1,0.3-2.1,0.4-3.2,0.7c-1.2,0.3-1.3,0.7-0.8,1.8
			c0.7,1.3,1.4,2.8,1.5,4.2c0.3,2.9,1,4.1,3.9,4.4c2.6,0.2,5.2,0.3,7-2.3c0.2-0.3,0.7-0.5,1-0.8c0.6-0.5,1.2-1,1.7-1.5
			c0.6-0.6,0.5-1.2-0.4-1.4c-0.8-0.2-1.6-0.4-2.3-0.7c-0.8-0.4-1.6-0.9-1.3-2.1c1.5,0.1,2.9,0.2,4.4,0.2c0.3,0,0.7-0.3,1-0.4
			c-0.2-0.3-0.3-0.6-0.5-0.9c-0.4-0.6-0.9-1.2-1.2-1.8c-0.1-0.4,0-1,0.2-1.3c0.2-0.2,0.8-0.1,1.3,0c1.2,0.1,2.3,0.2,3.5,0.3
			c0-0.2,0.1-0.4,0.1-0.5c-1.1-0.3-2.2-0.7-3.2-1c-1.7-0.6-2.2-1.1-2-2.2c2.3,0.1,4.6,0.1,6.8-0.8c-0.2-1-0.7-1.2-1.5-1.1
			c-1.2,0-2.5,0.1-3.8,0c-1.6-0.1-2.8-1.3-2.9-2.6c3,0.2,6,0.4,8.9-0.3c0-0.1,0.1-0.2,0.1-0.4c-1.4-0.8-2.9-1.6-4.6-2.5
			c2.4-0.9,2.4-0.9,3.4-2.7c0.2-0.4,0.5-0.9,0.8-1.3c0.1,0.6-0.3,1.1-0.3,1.5c0,0.7,0,1.6,0.4,2.1c0.8,1.2,4,1.4,5.3,0.5
			c-0.5-0.5-1-0.9-1.7-1.5c0.4-0.1,0.6-0.2,0.7-0.2c1.7,0.2,3.4,0.6,5,0.4c1.6-0.2,3-1,4.6-1.6c0.1-0.1,0.2-0.2,0.5-0.5
			c-0.7-0.6-1.4-1.1-2.1-1.6c-0.7-0.6-1.6-1.1-1.3-2.1c0.4-1.2,0.8-2.5,1.5-3.5c1.3-1.8,1.3-1.9-0.8-2.7c-0.4-0.1-0.9-0.2-1.2-0.5
			c-0.3-0.2-0.5-0.6-0.7-1c0.1-0.1,0.2-0.2,0.3-0.4c0.8,0.3,1.6,0.6,2.3,1.1c0.8,0.6,1.4,0.6,2.2,0c0.4-0.3,0.7-0.6,1.1-0.9
			c0.8-0.7,1.5-1.3,2.3-2c0,2,0,2,1.4,2.6c0.3-0.6,0.7-1.3,1-1.9c0.2,0.5,0.3,1,0.2,1.5c-0.7,2.4,0.2,2.3,1.6,3.2
			c0.1,0.1,0.3,0.2,0.5,0.2c0.9,0.1,1.7,0.2,2.6,0.3c0.3,0,0.6,0.2,1.1,0.4c-0.6,0.1-0.9,0.2-1.2,0.2c0,0.1,0,0.2,0,0.2
			C71.4,57.8,72.3,58.1,73.1,58.5z M33.1,110c0.2,0.1,0.3,0.2,0.5,0.3c-0.1,0.6-0.2,1.1-0.4,1.7c-1.1,3-1.7,6-1.4,9.2
			c0.1,0.9,0.6,1.8,1,2.9c1.9-2.2,3.7-4.1,5.3-6.1c2.4-3.1,5.3-5.9,8.5-8.1c3.8-2.6,7.7-5,11.2-8c2.8-2.5,5.9-4.5,9.4-5.8
			c2.7-1,5.4-1.9,8.1-2.8c-0.3-0.7-0.6-1.7-1.2-2.4c-0.9-1.1-1.3-2.7-3-3.1c-0.2,0-0.4-0.8-0.3-1.2c0.6-1.9,0.1-3-1.7-3.5
			c1.4-1.3,0.6-2.8,0.2-4.1c-0.4-1.3-2.2-1.9-3.5-1.4c-3.6,1.3-6.8,3.1-9.9,5.3c-3.4,2.5-6.6,5.1-9.8,7.8
			c-4.3,3.7-8.5,7.4-12.7,11.2c-2.8,2.5-5.5,5.1-7.9,7.9c-3.1,3.5-6.2,7.1-8.8,10.9c-2,2.9-3.7,6.2-5.1,9.5c-1.3,3-2.2,6.3-3.1,9.5
			c-0.1,0.4,0.1,0.9,0.2,1.3c0.4-0.2,0.9-0.3,1.3-0.5c0.8-0.6,1.4-1.6,2.3-1.8c2.2-0.6,3.6-1.8,4.4-3.8c0.2-0.4,0.6-0.8,0.9-1.2
			c2.8-3.6,6-6.8,10.2-8.7c1-0.5,1.8-1,1.4-2.3c-0.2-0.7,0-1.5-0.1-2.2c-0.2-3.2,1.3-5.9,2.5-8.6C31.9,111.1,32.6,110.6,33.1,110z
			 M67.5,76.4c-0.7-0.9-1.4-1.8-2.1-2.7c-1.4-1.5-4.2-1.7-5.8-0.4c-3.1,2.5-6.1,5.2-9.3,7.7c-2.4,1.9-4.9,3.7-7.4,5.5
			c-0.3,0.3-0.8,0.4-1.1,0.6c-1.6,0.8-3.3,1.5-4.9,2.4c-0.6,0.3-1.2,1-1.3,1.6c-0.1,2.5-0.1,5.1-0.1,7.9c0.8-0.5,1.4-0.9,2-1.4
			c5-4.2,10-8.5,14.9-12.8c2.2-1.9,4.3-3.7,6.9-5.1c0.6-0.3,1.1-1,1.4-1.7c0.6-1.2,2-2.1,3-1.7c-0.6,0.5-1.8,0.6-1.7,2.2
			c1-0.6,1.7-1.3,2.5-1.6C65.4,76.6,66.4,76.6,67.5,76.4z M57.6,104.4c7.1-2.7,14.2-4.7,22.1-3.9c-1-1.7-2-3.2-3.2-4.6
			c-0.4-0.5-1.3-0.9-1.9-0.8C68,96.4,62.2,99.4,57.6,104.4z M50.2,30.3c0.8,0.1,1.2,0.3,1.6,0.3c1.9-0.3,3.3,0.3,4.4,1.9
			c0.3,0.4,1.2,0.6,1.7,0.4c2.1-0.7,4.2-1.4,6.4-1.2c0.7,0.1,1.5-0.1,2.1-0.3c0.4-0.1,0.7-0.6,0.8-0.9c0.4-1.8-1.8-3.5-3.8-3
			c0.4,0.6,0.8,1.2,1.1,1.7c-1.2-0.8-2.4-1.9-3.7-2.5c-1.3-0.6-2.9-1.1-4.6-0.3c2.1,0.9,4.4,0.1,6,1.7c-2.2-0.1-4.3-0.5-6.5-0.7
			c-1.7-0.1-3.4-0.1-5.1,0c-0.4,0-0.7,0.6-1.1,1c0.4,0.2,0.8,0.4,1.2,0.5c0.2,0.1,0.4,0.1,0.8,0.1C51.1,29.4,50.8,29.7,50.2,30.3z
			 M90.5,65.8c2.2,0.9,3,0.6,3.6-1.6c0.5-2,0.7-4,0.8-6c0.1-1.9-2.1-4.1-4-4.3c-0.1,0.2-0.2,0.4-0.1,0.6c0.3,1.7-0.7,2.6-2,3.4
			c-0.5,0.3-0.9,0.6-1.3,1.1c-1.5,1.7-0.9,3.3,0,5c0.7,1.4,1.1,1.5,2.3,0.5c0.2-0.1,0.4-0.2,0.9-0.5C90.6,64.8,90.6,65.3,90.5,65.8z
			 M82.5,71.2c-0.2-0.1-0.4-0.1-0.6-0.2c0.1-0.5,0.1-1.1,0.2-1.6c0.1-0.8,0.2-1.6,0.1-2.3c-0.1-0.5-0.7-1.2-1.2-1.3
			c-0.8-0.2-2.4,1.9-2.1,2.7c0.4,1.1,0.2,2-0.2,3c-0.6,1.2-0.2,1.6,1,2c0.9,0.3,1.9,0.7,2.7,1.2c1.9,1,3.7,0.9,5.4-0.3
			c0.5-0.4,0.9-1.3,0.9-2.1c0-0.3-0.8-0.8-1.3-1.1c-0.1-0.1-0.3-0.2-0.7-0.4c0.9-0.2,1.5-0.3,2.1-0.4c-0.8-1.9-2.2-2.6-4.8-2.5
			c0.3,0.7,0.7,1.3,0.9,2c0.1,0.3,0.1,0.7,0.1,1c-0.3-0.2-0.7-0.3-0.9-0.6c-0.3-0.4-0.4-1-0.7-1.7C83,69.6,82.7,70.4,82.5,71.2z
			 M77.1,74.1c0.4-1.1,1-2.1,1.1-3c0-0.9-0.3-2-0.9-2.6c-0.4-0.4-1.6-0.5-2.2-0.2c-0.8,0.3-1.4,1-2,1.6c-0.9,1-0.8,3.4,0.2,4.5
			c0.6-0.7,1.1-1.4,1.7-2.1c0.6,0.9,0,1.3-0.5,1.7c-0.6,0.5-1.2,1.1-0.7,2c0.5,1,0.9,2,1.5,2.9c0.2,0.4,0.7,0.7,1.1,0.7
			c0.2,0,0.6-0.5,0.8-0.8c0.3-0.6,0.5-1.2,0.8-1.8C78.3,75.7,78.5,74.6,77.1,74.1z M64.5,34.9c0-0.1,0.1-0.3,0.1-0.4
			c0.9,0.2,1.8,0.4,2.8,0.5c0.4,0,1-0.4,1.1-0.8c0.2-0.4,0-1-0.2-1.3c-0.5-0.8-1.3-0.9-2.2-0.7c-1.1,0.4-2.2,0.9-3.3,1.3
			c-2.2,0.7-3.3,2.7-4.9,4.1c0.1,0.1,0.2,0.3,0.3,0.4c0.6-0.4,1.3-0.7,2.2-1.2c-0.1,0.7-0.1,1.2-0.1,1.7c0.1,0.1,0.3,0.2,0.5,0.4
			c1.7,1.6,2.2,1.5,3.8-0.1c0.7-0.7,1.5-1.1,2.2-1.7c0.3-0.3,0.6-0.7,1-1.3c-0.8-0.2-1.3-0.2-1.8-0.4C65.4,35.2,64.9,35,64.5,34.9z
			 M76.4,36.6c0.1,0,0.5,0,0.7,0.2c0.5,0.3,0.9,0.9,1.5,1.2c0.7,0.3,1.4,0.3,2.2,0.4c0.1,0,0.2-0.3,0.4-0.5c-0.5-0.3-0.9-0.7-1.4-1
			c-0.7-0.5-1.5-1-2.3-1.4c-1.3-0.5-2.6-0.9-4-1.1c-0.5-0.1-1.1,0.8-1.7,1.1c-1.8,1.1-1.7,3.1-1.1,4.6c0.2,0.4,0.9,0.6,1.4,0.6
			c0.4,0,1.1-0.4,1.2-0.8c0.1-0.3-0.4-0.8-0.6-1.2c-0.2-0.2-0.4-0.4-0.7-0.6c0.1-0.1,0.2-0.3,0.3-0.4c0.5,0.3,1,0.6,1.5,0.9
			c0.9,0.5,1.9,0.8,2.7-0.1C76.7,38.1,76.4,37.3,76.4,36.6z M68,37.6c-0.1,0-0.2,0-0.3-0.1c-0.7,0.4-1.5,0.8-2.2,1.3
			c-1.4,0.8-2.2,2.3-2.2,3.6c0.1,1.4,1.1,2.7,1.7,4c0,0.1,0.2,0.1,0.4,0.1c0.9,0.1,1.9,0.1,3.1,0.1C67.7,45,68,44,68.8,43
			c0.8-1,0.4-1.7-0.8-2c-0.4-0.1-1-0.4-1.1-0.7c-0.1-0.4,0.3-0.9,0.5-1.4C67.6,38.4,67.8,38,68,37.6z M69.3,77.5
			c0.3,1,0.6,2,0.9,2.9c0.1,0.3,0.4,0.8,0.6,0.9c0.3,0.1,0.7-0.2,1-0.5c0.5-0.5,1.1-1.1,1.3-1.8c0.3-0.7,0.5-1.8,0.1-2.4
			c-0.5-0.9-1.5-0.4-2.3,0C70.4,76.9,69.9,77.2,69.3,77.5z M88,45.8c-1.7,0.8-0.9,2.2-1,3.3c-0.5,0.1-0.9,0.3-1.4,0.4
			c0.8,1.2,1.6,0.5,2,0.4c0.6,0.6,1,1.1,1.4,1.6C91.1,50,90.5,47.7,88,45.8z M34.5,34.4c1.5-1.7,2.8-3.3,4.3-5
			C34.7,29.1,33.3,30.8,34.5,34.4z M80.5,78.8c0.6-0.3,1.1-0.5,1.5-0.7c1.4-0.8,1.4-1.6,0.1-2.6c-0.5-0.4-1-0.9-1.5-1.1
			c-0.5-0.2-1.6-0.3-1.6-0.1c-0.2,0.6-0.4,1.3,0.6,1.8c0.4,0.2,0.7,0.8,0.9,1.3C80.5,77.7,80.4,78.2,80.5,78.8z M60.5,33
			c-0.7,0.3-1.5,0.5-2.1,0.9c-1,0.7-2,1.5-2.9,2.3c-0.3,0.2-0.6,0.7-0.5,0.9c0.1,0.4,0.5,0.8,0.9,1c0.8,0.3,1.4-0.1,1.9-0.9
			C58.5,35.8,59.4,34.5,60.5,33z M76,55.4c1.4,1.1,2.9,0.7,4-0.2c1.3-1,2-2.5,1.7-4.3c-0.7,0.5-1.3,1-1.8,1.7
			c-0.4,0.7-0.7,1.4-1.1,2.3c-0.2-0.5-0.3-0.8-0.5-1.2C77.5,54.3,76.8,54.8,76,55.4z M72.4,43.5c-0.1-1.6-0.6-1.8-2.2-0.6
			c-0.7,0.6-1.1,1.6-1.6,2.5c0.8,0.3,1.6,0.7,2.4,0.9c0.3,0.1,0.8-0.3,1.2-0.5c-0.2-0.4-0.4-0.8-0.6-1.1c-0.2-0.3-0.6-0.6-1-1
			C71.4,43.6,71.9,43.5,72.4,43.5z M39.1,33.6c-1.5-0.2-2.5,0.5-2.7,1.7c-0.2,1.7,0.6,3,1.9,3.2C38.6,36.9,38.8,35.2,39.1,33.6z
			 M83.2,84.8c0.8,1,1.7,0.9,2.3,0.1c0.2-0.4,0.6-0.6,1-0.9c0.5-0.4,1.1-0.6,1.4-1c0.3-0.4,0.4-1,0.4-1.6c0-0.1-0.8-0.4-0.8-0.3
			c-0.3,0.4-0.5,0.9-0.7,1.4c0,0.1-0.1,0.1-0.3,0.3C84.2,81.4,84.5,84.2,83.2,84.8z M83.9,45.8c0.2,0.2,0.4,0.5,0.7,0.8
			c0.3,0.3,0.7,0.6,1,0.9c0.3-0.5,0.9-1,0.9-1.5c0-1.1-0.3-2.3-0.5-3.4c-0.1-0.3-0.5-0.5-0.7-0.7C84.8,43.3,84.4,44.5,83.9,45.8z
			 M31.3,124c0-3,0-5.7,0-8.5c-0.1,0-0.3,0-0.4,0c-1.1,2.6-1.2,5.3-0.4,8C30.6,123.8,31.1,123.9,31.3,124z M74.8,86
			c-2.4,1.4-2.3,2.3,0,4.4C74.8,88.8,74.8,87.5,74.8,86z M75.9,84c0.9,0.3,1.4,0,1.4-0.8c0-0.8-0.2-1.7-0.4-2.5c0,0-0.6-0.1-0.8,0.1
			c-0.2,0.2-0.4,0.5-0.4,0.8C75.7,82.4,75.9,83.2,75.9,84z M85.1,77.8c-0.2,0-0.3,0.1-0.5,0.1c0.1,0.6-0.1,1.4,0.3,1.6
			c0.7,0.5,1.5,0.6,2.4,0.9C87.8,78.1,86,78.5,85.1,77.8z M90.7,55.1c-0.6-0.6-0.9-0.9-1.2-1.1c-0.4,0.8-0.9,1.5-1.3,2.3
			c0,0.1,0.4,0.5,0.5,0.5C89.3,56.3,89.9,55.8,90.7,55.1z M83.6,47.1c-0.6,1.4-0.4,2.1,1.2,3.5C85.3,49.1,84.7,48,83.6,47.1z
			 M62.2,57.1c-0.6-0.3-1.2-0.6-1.8-1c-0.6,0.7-1.3,1.4-0.4,2.1C61.2,59.3,61.2,57.2,62.2,57.1z M47.6,29.3
			c-0.6-0.9-1.1-1.7-2.3-1.5c-0.2,0-0.5,0.7-0.4,0.9C45.5,29.9,46.4,29.7,47.6,29.3z M40.8,34.7c-1.3,0.6-2,2.3-1.6,3.1
			c0.1,0.1,0.3,0.3,0.5,0.3c0.2,0,0.5-0.2,0.6-0.3C40.5,36.8,40.6,35.9,40.8,34.7z M90,72.4c-0.6,1.1-1,2.1-1.6,3.1
			C90.2,75.5,90.9,74.1,90,72.4z M45.4,46.7c-0.2,1.6,0.5,2.4,2.6,2.2C47,48.1,46.2,47.4,45.4,46.7z M72.6,81.6
			c0.6,0.5,1,0.9,1.4,1.2c0.2-0.4,0.8-0.8,0.7-1.1c-0.1-0.5-0.6-0.8-1-1.2C73.4,80.8,73.1,81.1,72.6,81.6z M69.9,31.6
			c0.4,0.7,0.6,1.3,0.9,1.4c0.6,0.1,1.3,0,1.9-0.1c-0.1-0.3-0.2-0.7-0.4-0.7C71.7,32,71.1,31.9,69.9,31.6z M79.2,57.3
			c-0.1-0.1-0.2-0.3-0.3-0.4c-0.6-0.1-1.2-0.1-2.2-0.2c0.5,0.8,0.8,1.4,1.1,2C78.3,58.2,78.7,57.8,79.2,57.3z M47.4,46
			c-0.3,1.1,0.5,1.4,1.2,1.6c0.1,0,0.7-0.7,0.7-1C49.1,45.6,48.3,45.7,47.4,46z M82.1,59.7c2-0.3,2.4-1.3,1.3-2.9
			C83,57.8,82.6,58.6,82.1,59.7z M46,42.9c-1,0.4-1.8,0.7-2.8,1.1C44.8,45.1,45.8,44.8,46,42.9z M78.1,77.7c0,0.9,0,1.7,0,2.7
			C79.5,79.7,79.5,78.9,78.1,77.7z M45.1,39.6c-0.9,0.4-1.5,0.7-2.1,1c0.2,0.3,0.4,0.8,0.5,0.8C44.3,41.4,44.9,41,45.1,39.6z
			 M46.7,42.5c0-0.1,0-0.3,0-0.4c-0.8-0.4-1.7-0.9-2.4,0.6C45.1,42.6,45.9,42.5,46.7,42.5z M79.9,86.3c0.6-1.2-0.5-1.5-0.9-2.2
			c-0.2,0.1-0.5,0.3-0.5,0.4C78.5,85.4,78.8,86.1,79.9,86.3z M83.8,82.1c-1.7,0.9-1.9,1.1-1.1,2.1C83.2,83.5,84.3,83.3,83.8,82.1z
			 M87.3,77.9c0.2-0.2,0.3-0.4,0.5-0.6c-0.5-0.4-1.1-0.7-1.6-1.1c-0.1,0.2-0.4,0.6-0.4,0.6C86.3,77.1,86.8,77.5,87.3,77.9z M92,74.7
			c-0.1-0.1-0.2-0.1-0.3-0.2c-0.4,0.7-0.7,1.4-1.1,2.1c0.1,0.1,0.3,0.1,0.4,0.2C92.1,76.5,92,75.6,92,74.7z M80.8,81.8
			c-0.8-0.1-1.2-0.2-1.7-0.2c0.1,0.6,0.3,1.2,0.5,2.1C80.1,83,80.3,82.6,80.8,81.8z M33.7,36.3c-1,0.5-1.1,1.1-0.6,1.7
			c0.2,0.2,0.7,0.1,1,0.1C34,37.4,33.8,36.9,33.7,36.3z M87.4,84.7c-0.6,0.6-1.1,1-1.6,1.5c0.2,0.2,0.4,0.3,0.5,0.5
			c0.4-0.5,0.9-1,1.3-1.5C87.6,85.2,87.6,85.1,87.4,84.7z M72.4,86.2c0.3-0.5,0.6-0.8,0.8-1.1c-0.4-0.3-0.6-0.5-0.9-0.8
			c-0.3-0.2-0.5-0.4-0.8-0.6c-0.1,0.1-0.1,0.1-0.2,0.2C71.6,84.7,71.9,85.3,72.4,86.2z M82.6,49.2c-0.7,0.7-0.1,1.2,0.3,1.7
			c0.1,0.1,0.4,0.1,0.6,0.2c0-0.3,0.2-0.6,0-0.8C83.3,49.9,82.9,49.5,82.6,49.2z"/>
		<path d="M459.2,22.1c-0.7,0-1.3,0-1.9,0c-115.3,0-230.6,0-345.9,0c-0.6,0-1.2,0-1.8,0c-0.2,0-0.4-0.4-0.6-0.6
			c0.2-0.2,0.4-0.4,0.6-0.5c0.4-0.1,0.8,0,1.2,0c115.6,0,231.1,0,346.7,0c3,0,3,0,3,3.1c0,39.1,0,78.2,0,117.3c0,0.6,0,1.1,0,1.8
			c-0.5,0-0.9,0-1.4,0c-36.4,0.1-72.7,0.2-109.1,0.3c-30.7,0.1-61.4,0.2-92.1,0.3c-15.9,0.1-31.9,0.1-47.8,0.2
			c-0.8,0-1.6,0.3-2.3,0.7c-1.2,0.7-2.4,0.9-3.9-0.1c1.5-0.9,2.8-1.7,4.1-2.4c0-0.1,0-0.2-0.1-0.3c-1.2,0.1-2.5,0.3-3.7,0.5
			c-1.8,0.3-3.7,0.7-5.5,0.8c-1.1,0.1-2.4,0-3.4-0.4c-0.7-0.2-1.4-1-1.7-1.7c-0.3-0.8-0.7-1.1-1.4-0.9c-1.2,0.2-2.5,0.4-3.7,0.7
			c-5.2,1.3-10.4,2.8-15.7,4c-1.6,0.4-3.3,0.1-5,0.1c0-0.1-0.1-0.3-0.1-0.4c0.8-0.5,1.6-1,2.4-1.5c1.1-0.7,2.3-1.4,3.2-2.3
			c1.1-1,0.8-2.1-0.6-2.3c-2.7-0.3-5.5-0.8-8.1-0.3c-3.6,0.6-7.1,2.2-10.6,3.2c-4.1,1.1-8.2,2-12.3,2.8c-1.2,0.2-2.3,0-3.5-0.8
			c-0.8-0.5-2.2,0-3.4,0.1c-4,0.4-7.9,0.9-11.9,1.1c-1.1,0.1-2.3-0.5-3.6-0.8c0.5-0.7,0.8-1,1.1-1.4c-1.9,0.5-3.6,0.9-5.3,1.4
			c-4.7,1.3-9.5,2.1-14.2,1.6c-4.4-0.5-8.5,0.9-12.7,1.5c-6.5,1-13,1.9-19.5,2.6c-2.3,0.2-4.7-0.3-7.1-0.7c-1.8-0.3-2.4-1.8-1.5-3.3
			c1.4-2.4,3.5-4.3,6.1-5.4c4.6-2,9.3-3.9,13.9-5.9c2.6-1.1,5.1-2.4,7.6-3.8c1.3-0.7,2.5-1.8,3.7-2.8c0.4-0.3,0.6-0.8,0.8-1.3
			c0.3-1.1-0.1-1.7-1.3-1.5c-6.1,0.7-12.2,1.3-18.3,2.4c-10.7,1.9-21.2,4.8-31.4,8.6c-5.1,1.9-10.1,4.1-14.8,7.1
			c-0.4,0.3-0.8,0.6-1.1,0.9c-0.1,0.1-0.2,0.2-0.5,0.6c1.5-0.1,2.7-0.1,3.8-0.2c1.4,0,2.9,0,4.3,0c0.3,0,0.6,0.4,0.8,0.7
			c-0.3,0.3-0.5,0.7-0.8,0.7c-1.1,0.2-2.2,0.4-3.3,0.4c-3.2,0.1-6.4,0.1-9.6,0.1c-0.3,0-0.5,0-0.8-0.1c-0.4-0.2-0.8-0.5-1.1-0.7
			c0.2-0.3,0.4-0.8,0.7-1c2.6-1.6,5.3-3.1,8-4.6c1.9-1,3.9-1.7,5.8-2.5c11.5-4.8,23.4-8.1,35.5-10.6c8.8-1.8,17.6-3.1,26.6-3.8
			c1.5-0.1,3.1,0.1,4.6,0.4c1.3,0.3,1.6,1.2,0.7,2.2c-1.1,1.2-2.3,2.4-3.7,3.2c-5.8,3.2-11.7,6.3-17.5,9.4c-2.6,1.4-5.1,2.9-7.5,4.6
			c-1.2,0.9-2.2,2.2-3,3.5c-0.7,1-0.3,1.8,0.9,1.9c1.9,0.1,3.9,0.2,5.8-0.1c6-0.9,12-1.8,17.9-3.2c3.9-0.9,7.4-3,11.2-4.1
			c3.7-1.1,7.4-1.8,11.2-2.6c0.8-0.2,1.8,0,2.7,0.1c0.1,0.2,0.1,0.3,0.2,0.5c-0.8,0.4-1.5,0.8-2.3,1.1c-3.8,1.1-7.5,2.2-11.3,3.3
			c-0.6,0.2-1.2,0.4-1.8,0.7c0,0.1,0,0.2,0.1,0.4c1.7-0.2,3.4-0.3,5-0.6c6.2-1.4,12.4-2.8,18.7-4.2c0.9-0.2,1.8-0.2,3.1-0.4
			c-1.1,2.3-3.4,2.7-4.7,4.4c1,0,2.1,0,3.1-0.2c3.7-0.5,7.5-1,11.2-1.5c1.2-0.2,2.3,0.1,3.5,0.5c1.3,0.4,2.9,0.4,4.3,0.1
			c2.9-0.8,5.9-1.7,8.6-3.1c2.9-1.5,5.9-2.3,9.1-2.2c3.4,0,6.9,0.3,10.3,0.6c1.1,0.1,2.2,0.5,2.5,1.7c0.3,1.2-0.5,2.1-1.4,2.9
			c-0.5,0.4-1,0.8-1.4,1.5c0.5-0.1,1.1-0.1,1.6-0.3c5.5-1.3,11.1-2.6,16.6-3.9c0.7-0.2,1.6-0.1,2.3-0.1c0.9,0.1,1.7,0.5,1.8,1.5
			c0.1,1.2,0.8,1.7,1.8,1.5c2.8-0.4,5.5-0.9,8.3-1.4c1.4-0.3,2.7-0.7,4.1-1c0.5-0.1,1.1,0,1.6,0.1c0.1,0.1,0.2,0.3,0.3,0.4
			c-0.9,0.9-1.7,1.9-2.7,3c83-0.3,165.8-0.5,248.7-0.8C459.2,102.1,459.2,62.2,459.2,22.1z"/>
		<path d="M241.6,103.3c-2.4,0.4-1.7,2.2-1.8,3.6c0,2.9,0,5.8,0,8.8c1.8,0,3.5,0,5.4,0c0-0.6,0-1.2,0-1.8c0-2.7,0-5.5,0-8.2
			c0-1.2-0.1-2.1-1.6-2c-0.1,0-0.2-0.1-0.4-0.1c0,0,0-0.1-0.2-0.3c2.1,0,4,0,6.1,0c-0.1,0.2-0.2,0.3-0.2,0.3
			c-1.8-0.1-1.9,1.1-1.9,2.4c0.1,3.2,0,6.4,0,9.7c1.8,0,3.5,0,5.4,0c0-0.9,0-1.8,0-2.7c0-2.2,0-4.4,0-6.6c0-2,0-2-2-3.1
			c2.1,0,4,0,5.9,0c-2.4,0.3-1.8,2.1-1.8,3.5c0,2.3,0,4.7,0,7c0,2,0,2,1.8,2.7c-6.8,0-13.6,0-20.4,0c0.1-0.1,0.1-0.3,0.1-0.3
			c1.4,0,1.8-0.7,1.7-2c-0.1-2.5,0-5,0-7.5c0-1.4,0.5-3.1-1.8-3.3C237.8,103.3,239.7,103.3,241.6,103.3z"/>
		<path d="M285.1,116.3c0.3-0.1,0.6,0,0.8-0.2c0.4-0.3,0.9-0.7,1-1.1c0.1-3.2,0-6.5,0-9.9c-0.3,0.2-0.5,0.4-0.6,0.6
			c-2.2,3.3-4.5,6.5-6.6,9.9c-0.5,0.8-1,1.3-2,1.1c-0.9-0.1-1.8,0-2.7,0c0.1-0.2,0.1-0.4,0.1-0.4c1.6,0,1.8-0.9,1.8-2.3
			c-0.1-2.5,0-5,0-7.5c0-2.2,0-2.2-1.8-3.1c1.9,0,3.8,0,5.7,0c0,0.2-0.1,0.3-0.1,0.3c-1.6,0.1-1.7,1.1-1.7,2.4c0,2.9,0,5.9,0,9.1
			c0.4-0.5,0.6-0.7,0.8-1c2.3-3.4,4.6-6.9,6.9-10.3c0.2-0.3,0.8-0.5,1.2-0.6c1-0.1,2,0,3.1,0c0,0.2,0,0.3-0.1,0.3
			c-1.6,0.1-1.8,1.2-1.7,2.5c0.1,2.5,0,4.9,0,7.4c0,2.1,0,2.1,2.1,3c-2.2,0-4.1,0-6,0C285.1,116.5,285.1,116.4,285.1,116.3z"/>
		<path d="M127.8,72.1c1.9,0,3.8,0,5.7,0c-2.3,0.3-1.8,2-1.8,3.4c0,0.7,0,1.5,0,2.3c2.7,0,5.3,0,8,0c0-1.5,0-2.9,0-4.3
			c0-0.3-0.5-0.6-0.8-0.9c-0.3-0.2-0.6-0.2-0.9-0.5c1.9,0,3.8,0,5.7,0c0,0.1,0,0.3-0.1,0.3c-1.7,0.1-1.8,1.2-1.7,2.5
			c0.1,2.4,0,4.8,0,7.2c0,1.4-0.4,3,1.8,3.3c-1.9,0-3.8,0-5.6,0c0-0.1,0-0.3,0.1-0.3c1.5,0,1.9-0.9,1.8-2.3c-0.1-1.2,0-2.5,0-3.9
			c-2.7,0-5.3,0-8,0c0,1.7-0.1,3.4,0.1,5c0.1,0.6,1,1,1.4,1.5c-1.6,0-3.5,0-5.4,0c0.1-0.1,0.1-0.3,0.1-0.3c1.6,0,1.8-0.9,1.7-2.2
			c-0.1-2.8-0.1-5.6,0-8.5c0-1.1-0.1-1.9-1.5-1.9c-0.1,0-0.3-0.1-0.4-0.2C127.7,72.3,127.7,72.2,127.8,72.1z"/>
		<path d="M306.4,41c-2.5,0-2.1,1.6-2.1,3c0,2.3,0,4.6,0,6.9c0,1.3-0.3,2.8,1.8,3c-1.9,0-3.8,0-5.6,0c0-0.1,0-0.2,0-0.3
			c0.3-0.1,0.7,0,0.9-0.2c0.3-0.2,0.8-0.6,0.8-0.9c0.1-1.7,0-3.4,0-5.1c-2.7,0-5.3,0-8,0c0,1.8-0.1,3.5,0.1,5.1
			c0.1,0.5,1,0.9,1.5,1.4c-1.7,0-3.6,0-5.5,0c0-0.1,0-0.2,0.1-0.2c1.6,0,1.8-1,1.7-2.3c-0.1-2.8-0.1-5.6,0-8.5c0-1-0.2-1.8-1.4-1.7
			c-0.1,0-0.3-0.1-0.4-0.4c1.9,0,3.8,0,5.7,0c-2.4,0.4-1.7,2.2-1.8,3.6c0,0.6,0,1.3,0,2.1c2.7,0,5.3,0,8,0c0-1.5,0-2.9,0-4.4
			c0-0.3-0.5-0.6-0.8-0.8c-0.3-0.2-0.7-0.2-0.9-0.6c1.9,0,3.7,0,5.6,0C306.2,40.8,306.3,40.9,306.4,41z"/>
		<path d="M174.8,72.1c2,0,3.9,0,6.1,0c-0.2,0.2-0.3,0.4-0.4,0.4c-1.8-0.1-1.8,1.1-1.8,2.4c0,2.9,0,5.8,0,9c0.7-0.8,1.3-1.3,1.8-2
			c2.1-3.1,4.1-6.2,6.2-9.2c0.2-0.3,0.8-0.5,1.2-0.6c1-0.1,2,0,3.3,0c-0.4,0.3-0.5,0.5-0.6,0.5c-1.7-0.1-1.8,1-1.8,2.3
			c0,2.8,0,5.5,0,8.3c0,1.2,0.3,2,1.7,1.8c0.1,0,0.3,0.1,0.4,0.4c-1.9,0-3.8,0-5.6,0c0-0.1,0-0.2,0-0.2c0.2-0.1,0.4-0.2,0.7-0.2
			c0.8,0,1.1-0.4,1.1-1.2c0-3.2,0-6.4,0-9.9c-1,1.3-2,2.4-2.8,3.6c-1.7,2.4-3.3,4.9-5,7.3c-0.2,0.3-0.7,0.6-1.1,0.6
			c-1.1,0.1-2.2,0-3.3,0c0.1-0.3,0.2-0.4,0.2-0.4c1.9-0.5,1.9-0.5,1.9-2.6c0-2.7,0-5.4,0-8.1c0-1.2-0.2-1.9-1.6-1.9
			c-0.2,0-0.3-0.1-0.5-0.2C174.8,72.3,174.8,72.2,174.8,72.1z"/>
		<path d="M339.4,42.5c-2,2.9-4,5.9-5.9,8.8c-0.5,0.8-1.2,1.6-1.8,2.3c-0.1,0.1-0.3,0.3-0.4,0.3c-1.3,0-2.5,0-3.8,0
			c0-0.3,0-0.3,0-0.3c2-0.7,2-0.7,2-2.9c0-2.6-0.1-5.2,0-7.8c0-1.2-0.2-1.9-1.6-1.9c-0.2,0-0.3-0.1-0.5-0.4c2,0,3.9,0,6.1,0
			c-0.3,0.2-0.4,0.4-0.5,0.4c-1.6-0.1-1.8,1-1.8,2.3c0,2.9,0,5.9,0,9.2c0.8-0.9,1.5-1.6,2-2.4c2-3,4-6,6-9c0.2-0.2,0.4-0.5,0.6-0.5
			c1.2-0.1,2.4,0,3.7,0c-0.2,0.3-0.2,0.5-0.3,0.5c-1.9,0.6-1.9,0.6-1.9,2.6c0,2.7,0,5.4,0,8.1c0,1.2,0.3,2,1.7,1.8
			c0.1,0,0.3,0.1,0.4,0.4c-1.9,0-3.7,0-5.6,0c0-0.1,0-0.3,0-0.3c1.7,0,1.8-1.1,1.8-2.4c-0.1-2.9,0-5.7,0-8.6
			C339.6,42.6,339.5,42.5,339.4,42.5z"/>
		<path d="M109.5,85.5c0-0.3,0-0.3,0.1-0.3c2-0.6,2-0.6,2-2.9c0-2.6,0-5.3,0-7.9c0-1.1-0.3-1.7-1.5-1.7c-0.2,0-0.4-0.1-0.6-0.5
			c1.9,0,3.7,0,5.6,0c0,0.1,0,0.3,0,0.3c-1.9,0.1-1.7,1.5-1.7,2.8c0,2.8,0,5.7,0,8.5c0.1,0,0.2,0.1,0.3,0.1c1.7-2.5,3.4-4.9,5.1-7.4
			c0.9-1.3,1.8-2.6,2.7-3.9c0.1-0.2,0.4-0.4,0.6-0.4c1.1,0,2.2,0,3.3,0c0,0.3-0.1,0.4-0.1,0.4c-1.6,0.1-1.8,1.2-1.7,2.5
			c0.1,2.5,0,4.9,0,7.4c0,1.3-0.3,2.8,1.8,3c-1.9,0-3.8,0-5.7,0c0.1-0.1,0.1-0.3,0.2-0.3c1.9-0.4,1.9-0.4,1.9-2.3c0-2.9,0-5.7,0-8.8
			c-0.6,0.7-1.2,1.1-1.6,1.7c-2,2.9-4,5.9-6,8.9c-0.5,0.8-1,1.1-2,1.1C111.4,85.4,110.5,85.5,109.5,85.5z"/>
		<path d="M308.9,116.6c-1.9,0-3.7,0-5.6,0c0-0.2,0.1-0.3,0.1-0.3c1.6,0,1.8-1,1.7-2.3c-0.1-1.2,0-2.5,0-3.9c-2.8,0-5.5,0-8.3,0
			c0,1.7-0.1,3.4,0,5c0,0.4,0.6,0.8,1,1c0.2,0.2,0.6,0.1,0.9,0.4c-2,0-3.9,0-5.9,0c0.1-0.1,0.1-0.3,0.1-0.3c2.1-0.3,1.9,0.1,2-2.5
			c0-2.7,0-5.5,0-8.2c0-1.2-0.3-1.9-1.6-1.8c-0.2,0-0.3-0.1-0.5-0.4c2,0,3.9,0,5.9,0c0.1,0.1,0.2,0.2,0.3,0.3
			c-2.9-0.2-2.3,1.7-2.3,3.2c0,0.7,0,1.4,0,2.2c2.8,0,5.5,0,8.3,0c0-1.5,0-2.9,0-4.3c0-0.3-0.5-0.6-0.8-0.9
			c-0.3-0.2-0.6-0.2-0.9-0.5c1.9,0,3.8,0,5.8,0c-0.2,0.2-0.2,0.4-0.3,0.4c-1.9-0.1-1.9,1.2-1.9,2.5c0,2.4,0,4.9,0,7.3
			C306.9,115.8,306.9,115.8,308.9,116.6z"/>
		<path d="M282.2,40.6c1.9,0,3.7,0,5.6,0c0,0.2,0,0.3,0,0.3c-1.7,0.1-1.8,1.3-1.7,2.6c0,2.4,0,4.9,0,7.3c0,1.3-0.3,2.8,1.8,3
			c-1.9,0-3.8,0-5.6,0c-0.1-0.1-0.2-0.2-0.3-0.3c0.2,0,0.3-0.1,0.5-0.1c1.7,0.2,1.9-0.8,1.8-2.2c-0.1-1.3,0-2.6,0-4
			c-2.8,0-5.5,0-8.3,0c0,1.8-0.1,3.5,0.1,5.2c0,0.5,1,0.8,1.5,1.2c-1.8,0-3.6,0-5.5,0c0-0.1,0-0.2,0.1-0.2c2-0.5,2-0.5,2-2.7
			c0-2.6,0-5.3,0-7.9c0-1.2-0.2-1.9-1.6-1.9c-0.2,0-0.4-0.1-0.5-0.4c1.9,0,3.8,0,5.7,0c-2.4,0.4-1.7,2.2-1.8,3.6c0,0.6,0,1.3,0,2.1
			c2.8,0,5.5,0,8.3,0c0-1.5,0-2.9,0-4.4c0-0.3-0.5-0.6-0.8-0.8c-0.4-0.2-0.8-0.2-1.3-0.3C282.2,40.8,282.2,40.7,282.2,40.6z"/>
		<path d="M368.8,85.2c2.5-1.6,4.2-4,6.1-6.4c-0.9-0.4-1.8-0.8-2.6-1.2c-1.1-0.5-1.5-1.5-1.4-2.7c0-1.1,0.4-2.1,1.6-2.4
			c1.1-0.3,2.3-0.6,3.4-0.7c1.9-0.1,3.9,0,5.9,0c-0.1,0.3-0.1,0.5-0.1,0.5c-1.8,0-1.8,1.2-1.7,2.4c0,2.5,0,4.9,0,7.4
			c0,1.3-0.5,3,2.1,2.7c-0.1,0.1-0.2,0.2-0.3,0.3c-1.9,0-3.8,0-5.7,0c0-0.2,0-0.2,0.1-0.2c2-0.6,2-0.6,2-2.9c0-3,0-6.1,0-9.2
			c-1.2,0-2.2-0.1-3.3,0c-1.1,0.2-1.8,0.8-1.9,2c-0.1,1.3,0.5,2.3,1.7,2.8c0.9,0.4,1.9,0.5,3.4,0.8c-0.7,0.5-1.4,0.8-1.8,1.3
			c-1.1,1.3-2.2,2.7-3.3,4C371.8,85.6,370.8,85.9,368.8,85.2z"/>
		<path d="M206.9,104.1c0,3.8-0.1,7.4,0.1,11.1c0,0.4,1,0.9,1.5,1.3c-1.8,0-3.7,0-5.6,0c0-0.2,0-0.2,0-0.2c2-0.7,2-0.7,2-2.9
			c0-2.6,0-5.2,0-7.8c0-1.1-0.2-1.9-1.5-1.8c-0.2,0-0.4-0.2-0.6-0.5c5.2,0,10.3,0,15.5,0c-0.1,0.2-0.1,0.3-0.1,0.3
			c-1.6,0-1.8,1-1.7,2.3c0.1,2.5,0,5,0,7.5c0,1.3-0.4,2.9,1.8,3.1c-1.9,0-3.8,0-5.6,0c2.5-0.2,2-2,2-3.5c0-2.9,0-5.9,0-8.9
			C212.1,104.1,209.5,104.1,206.9,104.1z"/>
		<path d="M244.8,40.6c0.5,0,1.1,0,1.6,0c1.6,0,3.1-0.1,4.7-0.1c0.6,0,1.3,0.1,1.9,0.2c1.2,0.2,2.1,0.8,2.2,2.1
			c0.1,1.3-0.4,2.3-1.7,2.9c-0.4,0.2-0.8,0.4-1.3,0.6c0.4,0.1,0.7,0.2,1,0.3c1.7,0.4,2.5,1.1,2.7,2.5c0.2,1.5-0.6,3.4-2,3.9
			c-1.3,0.5-2.7,0.8-4.1,1c-1.4,0.2-2.8,0-3.8,0c0.2-1.4,0.4-2.7,0.5-4.1c0.1-2.1,0-4.2,0-6.2c0-1.3,0.3-2.7-1.9-2.7
			C244.6,40.9,244.7,40.7,244.8,40.6z M248.2,47c0,1.7,0.1,3.3,0,4.8c-0.1,1.2,0.3,1.6,1.5,1.5c0.3,0,0.5,0,0.8,0
			c2-0.1,3.2-1.2,3.2-3.3c0-2-0.9-2.9-3-3C249.8,46.9,249.1,47,248.2,47z M248.3,46.2c1.7-0.1,3.5,0.3,4.4-1.4
			c0.3-0.7,0.3-1.9-0.1-2.5c-1-1.4-2.7-1-4.3-0.8C248.3,43,248.3,44.5,248.3,46.2z"/>
		<path d="M353.1,85.8c-5.3,0-8.6-4.5-6.9-9.6c0.9-2.7,4.8-5.2,9.2-4.3c3.7,0.7,5.6,2.9,5.6,6.6C361,82.9,357.9,85.7,353.1,85.8z
			 M353.6,85c1.7,0.1,3.2-0.5,4.2-1.8c1.7-2,1.8-7.8-1.3-9.8c-3.2-2-7.5-0.7-8.2,2.8c-0.4,1.9-0.2,3.7,0.5,5.5
			C349.7,83.8,351.2,85,353.6,85z"/>
		<path d="M306.4,85.4c-1.7,0-3.6,0-5.8,0c2.1-0.9,2.1-0.9,2.1-3.2c0-2.6,0-5.2,0-7.8c0-1.1-0.1-1.9-1.5-1.8c-0.1,0-0.2-0.1-0.3-0.2
			c0,0,0-0.1-0.1-0.2c1.9,0,3.8,0,5.7,0c-2.3,0.4-1.8,2.1-1.8,3.5c0,0.9,0,1.7,0.3,2.8c2.1-2,4.3-4.1,6.7-6.3c0.6,0,1.7,0,2.8,0
			c0,0.1,0.1,0.2,0.1,0.3c-3.8,0.3-5.3,3.8-8.4,5.4c3.1,2.7,5.9,5.1,8.8,7.7c-1.2,0-2.5,0.3-3.6-0.7c-1.9-1.7-3.9-3.4-5.9-5.1
			c-0.2-0.2-0.4-0.3-0.7-0.5c0,1.7-0.1,3.3,0.1,4.8C305,84.4,305.9,84.9,306.4,85.4z"/>
		<path d="M323.9,85.8c-5.2,0-8.6-4.6-6.8-9.5c0.8-2.2,2.6-3.8,5-4.2c1.5-0.3,3.1-0.3,4.6,0c4.5,0.8,6.5,5.4,4.4,9.7
			C329.9,84.4,327.5,85.8,323.9,85.8z M324.7,85c2.8,0,4.6-1.5,5-4.2c0.1-0.5,0.1-0.9,0.2-1.4c0.2-2.8-1-5.2-3.2-6.3
			c-3.3-1.6-7.1-0.1-7.5,3.3c-0.2,1.6-0.1,3.4,0.4,5C320.2,83.8,322.1,85,324.7,85z"/>
		<path d="M128.6,54.3c-3.6,0-6-1.6-6.9-4.6c-1-3.4,0-6.7,2.8-8.3c3.4-1.9,8.4-1.8,11.3,2.1c1,1.5,1,5.4-0.1,6.9
			C133.9,53.1,131.8,54.3,128.6,54.3z M129.2,53.5c2.7,0,4.2-1.1,4.9-3.7c0.2-0.6,0.3-1.3,0.3-1.9c0.3-3.7-1.6-6.3-5-6.8
			c-2.5-0.3-5.3,0.8-5.7,3.8c-0.2,1.6,0,3.3,0.3,5C124.4,52.1,127.2,53.7,129.2,53.5z"/>
		<path d="M181.5,40.7c0,4.1,0,8.2,0,12.4c0.6,0.1,1.1,0.1,1.6,0.2c-0.3,1.6-0.7,3-1,4.5c-0.1,0-0.3,0-0.4,0c0-0.6,0-1.3,0-1.9
			c0-1.7-0.1-1.9-1.8-1.9c-2.8,0-5.5-0.1-8.3,0c-1.8,0-1.9,0.2-1.9,2c0,0.6,0,1.2,0,1.8c-0.1,0-0.3,0-0.4,0c-0.3-1.5-0.7-3-1-4.7
			c1.6,0.5,2.3-0.5,3-1.5c2-2.9,4.1-5.7,6.1-8.5c1.1-1.5,1-1.7-0.8-1.9c-0.3,0-0.7-0.2-1-0.5C177.6,40.7,179.5,40.7,181.5,40.7z
			 M179.2,53.2c0-3.8,0-7.5,0-11.6c-2.7,4-5.2,7.7-7.8,11.6C174.3,53.2,176.7,53.2,179.2,53.2z"/>
		<path d="M264.5,109.1c2.9,2.6,5.7,5,8.5,7.5c-1.2,0.2-2.3,0.2-3.4-0.7c-2.2-1.9-4.4-3.7-6.8-5.7c0,1.9-0.1,3.4,0,5
			c0,0.3,0.6,0.7,1,0.9c0.3,0.2,0.6,0.1,1,0.4c-1.9,0-3.8,0-5.7,0c0-0.1,0.1-0.3,0.1-0.3c1.5,0,1.8-0.9,1.7-2.2
			c-0.1-2.5,0-4.9,0-7.4c0-1.4,0.6-3.1-2.1-3c0.1-0.1,0.2-0.2,0.3-0.3c1.9,0,3.8,0,5.7,0c0,0.1,0.1,0.2,0.1,0.2
			c-0.1,0.1-0.2,0.2-0.3,0.1c-1.9-0.1-1.9,1.2-1.8,2.5c0,1.1,0,2.1,0,3.2c0.1,0.1,0.2,0.2,0.4,0.3c2.2-2.1,4.4-4.2,6.7-6.4
			c0.8,0,1.7,0,2.7,0C269.1,104.2,267.2,107,264.5,109.1z"/>
		<path d="M416.7,72.1c1.9,0,3.8,0,5.8,0c-0.2,0.2-0.3,0.4-0.4,0.4c-1.9-0.1-1.9,1.2-1.8,2.5c0,1.1,0,2.1,0,3.5
			c2.8-1.7,4.6-4.3,7.1-6.4c0.7,0,1.7,0,2.7,0c-3.4,0.9-5.3,3.7-8,5.8c2.9,2.5,5.6,5,8.5,7.5c-1.1,0.2-2.2,0.3-3.2-0.6
			c-1.7-1.5-3.5-3-5.2-4.5c-0.5-0.4-1.1-0.8-1.8-1.3c0,1.7,0,3.2,0,4.7c0,0.8,0.4,1.2,1.2,1.2c0.3,0,0.5,0.1,0.8,0.4
			c-1.9,0-3.8,0-5.6,0c2.3-0.2,1.8-1.9,1.8-3.3c0-2.2,0-4.3,0-6.5C418.5,74.2,419.1,72.4,416.7,72.1z"/>
		<path d="M308.5,40.7c1.9,0,3.8,0,5.7,0c-0.1,0.2-0.1,0.3-0.1,0.3c-1.9,0.8-1.9,0.8-1.9,2.9c0,0.7,0,1.5,0,2.3
			c1.1,0.1,2.2,0.1,3.2,0.2c0.6,0,1.2,0.1,1.8,0.3c1.8,0.5,2.6,1.3,2.7,2.7c0.2,1.7-0.7,3.3-2.3,3.9c-0.9,0.4-2,0.7-3,0.7
			c-2,0.1-4.1,0-6.1-0.1c1.8-0.9,1.8-0.9,1.8-3.2c0-2.6,0-5.3,0-7.9c0-1.1-0.2-1.8-1.4-1.7c-0.1,0-0.3-0.1-0.4-0.2
			C308.5,40.8,308.5,40.7,308.5,40.7z M312.1,46.9c0,1.5,0,2.7,0,3.9c0,2.5,0.1,2.6,2.7,2.4c0.3,0,0.6-0.1,0.9-0.2
			c1.1-0.4,2.3-2,2.3-3.1c0-1.2-1.3-2.5-2.7-2.8C314.3,47,313.3,47,312.1,46.9z"/>
		<path d="M397.7,72.1c1.9,0,3.8,0,5.7,0c-3.4,0.8-1.5,3.6-2.2,5.5c0.7,0.1,1.2,0.1,1.7,0.2c1.1,0.1,2.2,0.1,3.2,0.3
			c2,0.4,3,1.4,3,3c0.1,1.7-1.1,3.6-2.8,3.9c-2.1,0.4-4.3,0.4-6.4,0.5c-0.7,0-1.5,0-2.4-0.2c2.5-0.1,1.9-1.8,1.9-3.2
			c0-2.6,0-5.2,0-7.8c0-1.1-0.2-1.8-1.4-1.7c-0.1,0-0.3-0.1-0.4-0.2C397.7,72.3,397.7,72.2,397.7,72.1z M401.3,78.6
			c0,1.7-0.1,3.3,0,4.9c0,0.4,0.6,1.1,0.9,1.1c0.9,0.1,1.9,0.1,2.8-0.3c1.9-0.7,2.8-3.5,1.5-4.6C405.1,78.4,403.3,78.3,401.3,78.6z"
			/>
		<path d="M247,85.4c-1.9,0-3.7,0-5.6,0c2.3-0.2,1.8-1.9,1.8-3.3c0-2.6,0-5.1,0-7.7c0-1.1-0.1-1.9-1.5-1.9c-0.1,0-0.3-0.1-0.5-0.2
			c0.2-0.1,0.3-0.3,0.3-0.3c2.7,0,5.4,0,8.1,0.1c1.3,0,2.3,0.7,2.7,1.9c0.4,1.3,0.1,2.5-0.8,3.5c-0.9,1.1-3.6,2.2-5.2,1
			c0.8-0.1,1.5-0.1,2.2-0.3c1.3-0.3,2-1.3,2-2.6c0-1.4-0.7-2.3-1.9-2.7c-0.3-0.1-0.7-0.2-1-0.2c-2.1-0.2-2.4,0.2-2.4,2.2
			c0,2.5,0,5,0,7.5C245.3,84.5,245.3,84.5,247,85.4z"/>
		<path d="M207.6,47c0.4,0,0.8,0,1.2,0c1.7,0,2.8-1.1,2.9-2.7c0.1-1.6-0.9-2.8-2.6-3c-0.3,0-0.6,0-0.9,0c-1.7,0-1.9,0.2-1.9,1.9
			c0,2.6,0,5.1,0,7.7c0,1.3-0.4,2.9,1.8,3.1c-1.9,0-3.8,0-5.6,0c0-0.1,0-0.2,0-0.2c0.2-0.1,0.4-0.2,0.7-0.2c0.9,0,1.2-0.5,1.2-1.3
			c0-3.1,0-6.2,0-9.3c0-1-0.2-1.7-1.4-1.7c-0.2,0-0.3-0.2-0.8-0.4c0.6-0.1,0.8-0.2,1.1-0.2c1.7,0,3.4,0,5,0c0.5,0,1,0,1.6,0
			c2.5,0.1,3.8,1.1,3.8,3c0.1,2-1.5,3.8-3.7,4c-0.8,0.1-1.6,0-2.4,0C207.6,47.3,207.6,47.2,207.6,47z"/>
		<path d="M260.1,53.9c0.2-0.8,0.4-1.5,0.4-2.2c0.1-2.9,0-5.9,0.1-8.8c0-0.9-0.1-1.8-1.3-1.7c-0.2,0-0.3-0.1-0.5-0.1
			c0.1-0.1,0.2-0.2,0.2-0.3c3.4,0,6.7,0,10.2,0c-0.1,1-0.2,1.9-0.3,2.9c-0.1,0-0.3,0-0.4,0.1c-0.1-0.3-0.4-0.6-0.4-0.9
			c0.1-1-0.5-1.2-1.3-1.2c-1.4,0-2.8,0-4.5,0c0,1.5,0,3,0,4.4c0,0.3,0.5,0.7,0.8,0.7c0.6,0.1,1.2,0,1.8,0c1.2,0.1,2.2-0.1,2.4-1.6
			c0,1.4,0,2.7,0,4.1c-0.1,0-0.3,0-0.3-0.1c-0.1-1.6-1.1-1.8-2.4-1.7c-2.7,0.1-2.4-0.4-2.4,2.4c0,1,0,2.1,0,3.1c1.9,0,3.8,0.1,5.6,0
			c0.4,0,0.8-0.6,1.1-1c0.2-0.3,0.2-0.7,0.3-1.1c0.1,0,0.2,0,0.4,0.1c0,1-0.1,1.9-0.1,3C266.4,53.9,263.2,53.9,260.1,53.9z"/>
		<path d="M156.2,116.6c-1.5,0-3,0-4.5,0c1.7-0.4,1.9-2,2.4-3.2c1.5-3.2,3-6.4,4.5-9.6c0.1-0.3,0.4-0.5,0.6-0.7
			c0.2,0.2,0.5,0.4,0.6,0.6c1.5,3.4,3,6.8,4.6,10.2c0.5,1,1.3,1.8,1.9,2.6c-1.4,0-3.1,0-5.1,0c1.9-0.8,1.8-0.8,1.1-2.7
			c-0.4-1.2-1-1.8-2.3-1.6c-0.6,0.1-1.2,0-1.8,0c-2.4,0-2.6,0.1-3.6,2.4c-0.5,1.2-0.4,1.4,0.9,1.5c0.2,0,0.4,0.1,0.6,0.1
			C156.3,116.4,156.3,116.5,156.2,116.6z M158.8,105.8c-0.8,2-1.6,3.8-2.3,5.6c1.7,0,3.3,0,5.1,0
			C160.6,109.5,159.7,107.7,158.8,105.8z"/>
		<path d="M325.7,116.6c-1.6,0-3.3,0-5,0c0-0.1,0-0.2,0-0.3c0.5-0.1,0.9-0.2,1.7-0.3c-0.5-1.2-1-2.4-1.5-3.5c0-0.1-0.3-0.2-0.5-0.2
			c-1.6,0-3.2,0-4.8,0c-0.3,0-0.6,0.4-0.8,0.7c-0.2,0.3-0.3,0.7-0.5,1.1c-0.7,1.8-0.7,1.8,1,2.5c-1.5,0-3,0-4.5,0
			c1.6-0.6,2.2-2,2.9-3.4c1.2-2.6,2.3-5.3,3.5-7.9c0.3-0.7,0.9-1.4,1.4-2c0.4,0.6,0.8,1.2,1.1,1.9c1.5,3.2,2.9,6.4,4.4,9.6
			C324.5,115.4,325.2,115.9,325.7,116.6z M320.6,111.4c-0.8-1.9-1.5-3.7-2.3-5.5c-0.1,0-0.2,0-0.4,0c-0.8,1.8-1.6,3.6-2.4,5.6
			C317.3,111.4,318.9,111.4,320.6,111.4z"/>
		<path d="M436.9,85.4c-1.5,0-3,0-4.5,0c2-0.7,2.2-2.7,2.9-4.3c1.4-2.8,2.6-5.7,4-8.5c0.1-0.2,0.4-0.4,0.6-0.6
			c0.2,0.2,0.5,0.4,0.7,0.7c1.5,3.3,3,6.6,4.5,10c0.5,1.2,1,2.3,2.4,2.8c-1.7,0-3.4,0-5.4,0c1.9-0.8,1.8-0.8,1.2-2.7
			c-0.4-1.2-1-1.8-2.3-1.6c-0.9,0.1-1.9,0-2.9,0c-1.3,0-3.1,2.1-2.8,3.3c0,0.2,0.5,0.4,0.7,0.5c0.3,0.1,0.7,0.1,1,0.1
			C436.9,85.2,436.9,85.3,436.9,85.4z M439.4,74.6c-0.8,2-1.6,3.8-2.3,5.6c1.8,0,3.3,0,5,0C441.2,78.3,440.3,76.6,439.4,74.6z"/>
		<path d="M200.3,53.9c-1.7,0-3.4,0-5.4,0c1.9-0.8,1.9-0.8,1.2-2.7c-0.4-1.2-1-1.8-2.3-1.6c-0.7,0.1-1.5,0.1-2.2,0
			c-1.6-0.2-2.5,0.3-3,1.9c-0.5,1.7-0.7,1.7,1.1,2.4c-1.4,0-2.8,0-4.2,0c1.7-0.4,1.9-1.9,2.4-3.1c1.5-3.2,3-6.4,4.5-9.6
			c0.1-0.3,0.4-0.5,0.6-0.7c0.2,0.2,0.5,0.5,0.6,0.7c1.6,3.4,3.1,6.9,4.6,10.3c0.4,1,0.7,2.2,2.4,2
			C200.4,53.6,200.3,53.8,200.3,53.9z M190,48.7c1.6,0,3.1,0,4.8,0c-0.8-1.9-1.5-3.7-2.4-5.7C191.5,45,190.7,46.8,190,48.7z"/>
		<path d="M152,41.1c-0.2,1-0.3,1.9-0.4,2.9c-0.2-0.1-0.4-0.2-0.4-0.2c0-1.8-1.3-2.2-2.7-2.5c-3.7-0.8-6.9,0.8-7.5,4.7
			c-0.5,3.8,1.9,7.1,5.8,7.2c1.7,0.1,3.4-0.4,5.2-0.6c-0.2,0.2-0.5,0.7-0.9,0.9c-3.9,1.4-7.8,1.4-11-2c-2.2-2.3-1.4-7.3,0.5-8.9
			C144.2,39.6,147.9,40.1,152,41.1z"/>
		<path d="M124,116.6c1.5-0.3,1.3-1.5,1.3-2.5c0-1.3,0-2.5,0.1-3.8c0-1,0-2-1.5-2.1c2.1-0.9,3.4-0.4,4.2,1.4
			c0.7,1.6,1.4,3.1,2.3,4.9c0.3-0.4,0.7-0.7,0.8-1c0.7-1.5,1.5-2.9,2.1-4.4c0.4-0.9,0.9-1.4,1.9-1.2c0.6,0.1,1.2,0,1.9,0.1
			c-1.9,0.8-1.6,2.4-1.6,3.8c0,0.8-0.1,1.7,0,2.5c0.1,0.9,0.3,2,1.5,2.3c-1.4,0-2.9,0-4.8,0c2.1-0.5,1.7-1.8,1.7-3
			c0-1.2,0-2.4-0.3-3.7c-1.2,2.3-2.4,4.6-3.7,7.2c-1.3-2.7-2.4-5-3.5-7.3c-0.1,0-0.1,0-0.2,0.1c0,1.8-0.1,3.7,0.1,5.5
			c0,0.4,0.7,0.8,1.1,1.2C126.2,116.6,125.1,116.6,124,116.6z"/>
		<path d="M298.7,72.7c-0.3,0.9-0.5,1.8-0.8,2.9c-0.2-0.3-0.4-0.4-0.4-0.6c0.1-1.5-0.9-1.9-1.9-2.1c-2.3-0.6-4.4-0.4-6.2,1.2
			c-2,1.7-2.2,3.9-1.7,6.2c0.4,1.8,3,4.3,5.5,4.5c1.7,0.1,3.4,0.1,4.9-0.9c0.2-0.1,0.4-0.1,0.8-0.2c-0.2,0.5-0.3,0.9-0.5,1
			c-3.2,1.8-8.5,1.7-11.3-1.4c-1.9-2.1-2-4.6-1.2-7.1c0.9-2.6,3.1-3.7,5.6-4.2C293.9,71.4,296.2,71.9,298.7,72.7z"/>
		<path d="M229.5,52.6c-0.8,0.4-1.6,1.1-2.5,1.3c-2.8,0.8-5.6,0.5-8.1-1c-2.2-1.4-3-3.5-2.8-6c0.2-2.4,1.2-4.3,3.5-5.5
			c2.6-1.3,5.3-1.3,8.1-0.7c1.2,0.3,1.5,0.8,1.2,1.9c-0.1,0.4-0.2,0.9-0.3,1.4c-0.2-0.1-0.4-0.2-0.4-0.3c0.1-1.9-1.3-2.2-2.7-2.5
			c-2.6-0.6-4.9,0.2-6.5,2.3c-1.4,1.9-1.4,4.2-0.4,6.3c1,2,2.9,3.3,5.3,3.5c1.7,0.1,3.4,0,4.9-0.9c0.1-0.1,0.3-0.1,0.5-0.1
			C229.3,52.3,229.4,52.5,229.5,52.6z"/>
		<path d="M385.3,81.4c0.5,1.6,1,3.2,2.9,3.4c0.8,0.1,1.7,0.1,2.4-0.2c1.7-0.7,2.5-2.5,2.1-4.3c-0.4-1.7-2-2.3-4.9-2
			c-0.2-0.9-0.2-0.9,0.9-0.9c1.9-0.1,3-1.4,2.6-3.1c-0.2-1.1-0.9-1.6-2-1.8c-1.2-0.2-2.8,0.4-3.3,1.3c-0.2,0.4-0.4,0.9-0.6,1.5
			c-0.6-2.1-0.4-2.7,1.8-3c1.5-0.2,3-0.1,4.5,0c1.2,0.1,1.8,0.9,1.9,2.1c0.1,1.3-0.5,2.2-1.6,2.7c-0.4,0.2-0.8,0.3-1.5,0.6
			c0.5,0.1,0.8,0.2,1,0.2c1.4,0,2.6,0.4,3.2,1.8c0.6,1.5,0.4,3-0.7,4.2c-0.5,0.6-1.3,1.2-2,1.3c-1.7,0.2-3.5,0.3-5.2,0.2
			c-1.2-0.1-2-0.7-1.8-2.1c0.1-0.6,0-1.1,0-1.7C385,81.5,385.2,81.5,385.3,81.4z"/>
		<path d="M283,83.9c-0.3,0.3-0.6,0.8-0.9,1c-2.8,1.5-7.6,1-9.9-1c-3.8-3.2-2.7-9.7,1.9-11.4c2.9-1.1,5.6-1.1,8.7,0.1
			c-0.1,0.9-0.2,1.8-0.4,3c-0.3-0.3-0.5-0.5-0.4-0.6c0.2-1.5-0.9-1.8-1.9-2.1c-2.6-0.7-5-0.3-6.8,1.6c-1.7,1.8-1.7,4.2-0.9,6.5
			c0.7,1.9,2.2,2.9,4,3.5c2.2,0.7,4.4,0.5,6.5-0.7C282.9,83.7,282.9,83.8,283,83.9z"/>
		<path d="M159,72.6c-0.1,1-0.3,1.9-0.4,3c-0.7-1.1-0.5-2.3-2-2.7c-1.7-0.4-3.4-0.6-5.1,0.1c-2.4,1-3.5,2.8-3.5,5.6
			c0.1,2.9,1.6,4.9,4.4,5.8c1.9,0.6,4,0.4,6.8-0.5c-0.3,0.3-0.5,0.8-0.9,1c-3.3,1.3-6.6,1.4-9.6-0.7c-2.4-1.7-3-4.2-2.5-6.9
			c0.5-2.5,2-4.1,4.4-4.9C153.5,71.4,156.1,71.6,159,72.6z"/>
		<path d="M188.6,115.1c-0.3,0.3-0.5,0.8-0.8,1c-3,1.3-6.1,1.3-9-0.2c-2.8-1.5-3.6-4.1-3.2-7.1c0.4-2.8,2.1-4.6,4.9-5.4
			c2.6-0.7,5.2-0.5,7.9,0.4c-0.1,1-0.3,1.9-0.4,3.2c-0.3-0.5-0.4-0.7-0.4-0.8c0.1-1.3-0.7-1.7-1.7-2c-3-1-6.5,0-7.6,2.4
			c-1.8,3.7-0.5,8.7,5.1,9.4c1.8,0.2,3.5,0,5.1-1C188.4,114.9,188.5,115,188.6,115.1z"/>
		<path d="M161.7,48.7c1-2.3,2-4.4,2.8-6.4c0.1-0.2-0.3-0.7-0.5-1.1c-0.1-0.2-0.4-0.3-0.6-0.6c1.4,0,2.7,0,4.3,0
			c-3.6,3-4.6,7.4-6.9,11c-0.4,0.7-0.9,1.5-1.6,2c-0.5,0.4-1.3,0.5-2,0.5c-0.3,0-0.5-0.9-0.6-1.4c-0.1-0.5-0.1-1-0.2-1.8
			c0.4,0.5,0.6,0.8,0.8,1c0.5,0.6,1.2,0.8,1.8,0.3c0.5-0.4,1-0.8,1.4-1.2c0.2-0.2,0.1-0.7,0-0.9c-1.1-2-2.2-4-3.3-5.9
			c-0.7-1.3-1.1-2.9-2.9-3.4c1.7,0,3.4,0,5,0c0.1,0.1,0.2,0.2,0.3,0.3c-0.2,0.1-0.4,0.1-0.6,0.2c-1.1,0.2-0.9,0.8-0.6,1.5
			C159.4,44.6,160.5,46.5,161.7,48.7z"/>
		<path d="M256.7,82.5c1.8,1.8,2.8,1.8,3.9,0.2c0.2-0.3,0.3-1,0.1-1.4c-1.4-2.7-2.9-5.3-4.4-7.9c-0.3-0.5-1-0.8-1.7-1.3
			c1.9,0,3.6,0,5.5,0c-1.6,1.1-1.6,1.1-0.8,2.8c0.8,1.7,1.7,3.3,2.6,5.2c1.1-2.2,2.1-4.2,3.1-6.3c0.3-0.7,0.2-1.1-0.6-1.2
			c-0.2,0-0.4-0.2-0.9-0.6c1.6,0,2.9,0,4.2,0c-3,3.6-4.8,7.8-7.1,11.8c-0.6,1.1-1.3,1.9-2.7,1.8c-0.7-0.1-1.1-0.3-1.1-1.1
			C257,84,256.8,83.3,256.7,82.5z"/>
		<path d="M233.6,103.3c-0.9,1.4-1.9,2.8-2.7,4.3c-1.5,2.6-2.9,5.2-4.3,7.7c-0.3,0.5-0.8,1.1-1.3,1.4c-1.3,0.7-2.2,0.2-2.4-1.3
			c0-0.5-0.1-1-0.2-1.7c0.3,0.2,0.5,0.3,0.6,0.5c0.8,1,1.6,1.2,2.5,0.6c1.2-0.8,1.4-1.5,0.7-2.7c-1.3-2.4-2.6-4.7-4-7.1
			c-0.4-0.6-1.1-1-1.7-1.6c1.7,0,3.4,0,5.4,0c-0.3,0.3-0.5,0.5-0.7,0.5c-0.7,0.2-0.9,0.6-0.5,1.3c1,2,2,4,3.1,6.3
			c1.1-2.3,2.1-4.3,3.1-6.4c0.3-0.7,0.2-1.1-0.6-1.2c-0.2,0-0.4-0.2-0.9-0.6C231.2,103.3,232.5,103.3,233.6,103.3z"/>
		<path d="M208.6,82.5c0.5,0.3,0.8,0.5,0.9,0.7c0.7,0.9,1.5,1,2.3,0.3c0.9-0.7,1.3-1.5,0.6-2.6c-1.4-2.3-2.6-4.7-4-7.1
			c-0.4-0.6-1.1-1-1.7-1.6c1.8,0,3.4,0,5.1,0c-2,0.9-0.9,2.1-0.4,3.1c0.8,1.6,1.5,3.1,2.4,4.7c0.3-0.3,0.6-0.4,0.7-0.7
			c0.9-1.8,1.7-3.7,2.5-5.6c0.5-1.2-0.9-0.9-1.3-1.6c1.5,0,2.8,0,4.5,0c-3.3,1.9-3.7,5.3-5.4,7.9c-0.9,1.5-1.8,3-2.8,4.5
			c-0.3,0.4-0.8,0.9-1.2,1.1c-1.2,0.5-2-0.1-2.2-1.3C208.8,83.7,208.7,83.2,208.6,82.5z"/>
		<path d="M117.8,109.3c-1.3,2-2.7,4-3.8,6.1c-0.5,0.9-1.1,1.5-2.2,1.3c-0.6-0.1-1.3,0-1.9,0c0-0.2,0-0.3,0-0.3
			c1.8-0.3,1.6-1.6,1.7-2.9c0-0.6,0-1.2,0-1.8c0-2.4,0-2.4-1.8-3.7c1.7,0,3.2,0,4.7,0c-1.7,0.6-1.3,2.1-1.4,3.4c0,1.2,0,2.5,0,4
			c0.3-0.2,0.4-0.3,0.5-0.4c1.3-1.9,2.6-3.8,3.8-5.8c0.5-0.9,1.1-1.4,2.1-1.2c0.6,0.1,1.3,0,1.9,0c0,0.2,0,0.4,0,0.4
			c-1.5,0.2-1.8,1.2-1.7,2.5c0.1,0.9,0,1.9,0,2.9c0,2.1,0,2.1,2.1,3c-1.9,0-3.5,0-5.1,0c2-0.7,1.3-2.4,1.4-3.7c0-1.1,0-2.2,0-3.4
			C118,109.4,117.9,109.4,117.8,109.3z"/>
		<path d="M344.6,72.1c-0.1,0.9-0.2,1.8-0.4,2.7c-0.5-2.4-2.4-1.9-3.9-2c-0.7,0-1.4,0-2.2,0c0,1.4,0,2.6,0,3.8c0,2,0,4,0,6
			c0,2,0,2,1.8,2.7c-1.9,0-3.8,0-5.6,0c0-0.1,0-0.1,0-0.2c0.2-0.1,0.5-0.1,0.7-0.2c0.4-0.3,1-0.7,1-1.1c0.1-3.4,0-6.8,0-10.1
			c0-0.7-0.2-1.1-1-1.1c-0.3,0-0.5-0.2-0.7-0.5C337.6,72.1,341,72.1,344.6,72.1z"/>
		<path d="M201.7,85.4c-1.9,0-3.8,0-5.8,0c0-0.1,0.1-0.3,0.1-0.3c1.7,0,1.8-1.1,1.8-2.4c0-3.2,0-6.5,0-9.8c-0.6,0-1-0.1-1.4-0.1
			c-2.5,0-2.5,0-3.4,2.2c-0.1-0.9-0.2-1.9-0.3-2.9c4.1,0,8,0,12,0c0,0.9,0,1.7,0,2.6c0,0.1-0.2,0.3-0.4,0.4c-0.1,0-0.3-0.1-0.4-0.2
			c-1.3-2.2-1.4-2.2-3.9-1.9c-0.9,3.2-0.4,6.5-0.4,9.7C199.6,83.9,200,85.3,201.7,85.4z"/>
		<path d="M173.2,72.1c-0.1,1.1-0.1,2-0.2,3.1c-1-0.6,0-2.3-1.6-2.2c-1,0-2,0-3.3,0c0,1.6,0,3.1,0,4.6c0,1.7,0,3.4,0,5.1
			c0,2,0,2,2.1,2.7c-2,0-4,0-6,0c0.1-0.1,0.1-0.2,0.1-0.3c2-0.4,2-0.4,2-2.6c0-3.2,0-6.3,0-9.6c-1.2,0-2.2,0-3.1,0
			c-1.6-0.1-0.9,1.5-1.6,2.5c-0.1-1.3-0.2-2.3-0.3-3.3C165.3,72.1,169.1,72.1,173.2,72.1z"/>
		<path d="M240.2,53.9c-1.9,0-3.8,0-6.1,0c2.2-0.9,2.2-0.9,2.2-3.2c0-2.5,0-5,0-7.5c0-0.6-0.1-1.1-0.2-1.8c-0.6,0-1.2,0-1.8,0
			c-1.9,0-1.9,0-2.3,1.9c0,0.1-0.1,0.2-0.4,0.5c-0.1-1.2-0.2-2.1-0.2-3.2c4,0,7.9,0,11.9,0c-0.1,1-0.1,2-0.2,3.2
			c-0.9-0.8,0-2.4-1.6-2.4c-1,0-2,0-3.1,0c0,3.7,0,7.4,0,11.1c0,0.3,0.5,0.7,0.9,0.9c0.3,0.2,0.7,0.1,1.1,0.2
			C240.2,53.7,240.2,53.8,240.2,53.9z"/>
		<path d="M221.4,72.1c4,0,7.9,0,11.9,0c-0.1,1.1-0.1,2-0.2,2.9c-0.1,0-0.2,0-0.2,0c-0.3-0.7-0.4-1.8-0.8-1.9
			c-1.1-0.3-2.4-0.2-3.7-0.3c0,3.9,0,7.5,0,11.2c0,0.3,0.5,0.7,0.9,0.9c0.3,0.2,0.7,0.1,1.1,0.4c-1.9,0-3.8,0-5.8,0
			c0.1-0.1,0.1-0.3,0.1-0.3c1.6,0.1,1.8-0.9,1.8-2.2c0-3.3,0-6.6,0-10c-1.2,0-2.1,0-3.1,0c-1.6,0-1,1.4-1.3,2.2c-0.1,0-0.2,0-0.4,0
			C221.5,74.1,221.5,73.1,221.4,72.1z"/>
		<path d="M115.1,53.9c-1.9,0-3.7,0-5.6,0c0-0.1,0-0.3,0-0.3c2-0.5,2-0.5,2-2.6c0-2.6,0-5.3,0-7.9c0-1,0-2.1-1.5-1.9
			c-0.2,0-0.4-0.2-0.5-0.5c3.4,0,6.9,0,10.4,0c-0.1,0.9-0.2,1.8-0.3,2.6c-0.1,0-0.2,0-0.2,0c-0.1-0.2-0.3-0.5-0.3-0.7
			c-0.1-0.9-0.7-1.2-1.4-1.2c-1.3,0-2.7,0-4.2,0c0,0.6,0,1.2,0,1.7c0,2.9,0,5.9,0,8.8c0,1.1,0.3,1.7,1.4,1.6c0.1,0,0.3,0.1,0.4,0.2
			C115.2,53.7,115.2,53.8,115.1,53.9z"/>
		<path d="M414.4,72.2c-1.8,0.8-1.8,0.8-1.8,3c0,2.4,0,4.8,0,7.1c0,2.2,0,2.2,1.9,3c-1.9,0-3.8,0-6.1,0c2.2-0.9,2.2-0.9,2.2-3.1
			c0-2.3,0-4.7,0-7c0-2.2,0-2.2-1.8-3C410.6,72.2,412.5,72.2,414.4,72.2z"/>
		<path d="M319.5,40.7c1.9,0,3.8,0,5.8,0c-0.1,0.2-0.1,0.3-0.1,0.3c-1.7,0-1.8,1.2-1.8,2.5c0,2.5,0,4.9,0,7.4c0,2.2,0,2.2,1.9,3
			c-1.9,0-3.8,0-5.8,0c2.3-0.2,1.9-1.9,1.9-3.3c0-2.3,0-4.7,0-7c0-1.3,0.1-2.7-2-2.6C319.4,40.9,319.4,40.8,319.5,40.7z"/>
		<path d="M33.5,98c-2.1-0.1-4.3,0.3-6.4-0.7c-0.5-0.2-1.3-0.2-1.8,0c-2.1,1-4.1,2.2-6.2,3.3c0.1,0.2,0.1,0.3,0.2,0.5
			c1,0.1,2.1,0.2,3.3,0.2c-1.3,2-2.6,3.9-3.9,5.8c-0.1-0.1-0.2-0.1-0.3-0.2c1-1.6,2-3.3,3.1-5c-0.9-0.1-1.6-0.2-2.4-0.3
			c-0.9-0.1-1-0.7-0.5-1.3c0.5-0.6,1.1-1.3,1.8-1.6c2-1.1,3.9-2.6,6.4-2.3c0.1,0,0.3,0,0.4,0c1.7,1.1,3.5,1.1,5.5,1
			C33,97.4,33.3,97.7,33.5,98C33.6,97.9,33.5,98,33.5,98z"/>
		<path d="M95,75.9c-1.2-0.8-2.3-1.7-2.1-3.1c0.1-1.1,0.3-2.3,1.8-3c-0.3,1.3-0.9,2.3-0.8,3.3C94,74.1,94.6,75,95,75.9z"/>
		<path d="M333.1,37.5c0.3-0.2,0.5-0.5,0.5-0.4c1,0.6,1.7,1.4,2.5,1.4c0.7,0,1.5-0.8,2.3-1.3c-0.1,0.3-0.1,0.9-0.4,1.1
			C336.5,39.7,334.4,39.4,333.1,37.5z"/>
		<path d="M170.9,114.2c0.5,0.7,1.2,1.2,1.1,1.5c0,0.4-0.7,1.1-1.1,1.1c-0.5,0-0.9-0.7-1.4-1C170,115.3,170.3,114.9,170.9,114.2z"/>
		<path d="M141.6,114.2c0.5,0.7,1.1,1.2,1,1.5c-0.1,0.4-0.8,1.1-1.1,1.1c-0.5-0.1-0.9-0.7-1.3-1.1
			C140.6,115.3,141,114.9,141.6,114.2z"/>
		<path d="M192.6,114.1c0.5,0.8,1,1.3,1,1.7c0,0.4-0.7,1.1-1,1c-0.4-0.1-1-0.7-1.1-1.1C191.5,115.3,192.1,114.9,192.6,114.1z"/>
		<path fill="#FFFFFF" d="M73.1,58.5c-0.9-0.3-1.7-0.7-2.6-1c0-0.1,0-0.2,0-0.2c0.3-0.1,0.6-0.1,1.2-0.2c-0.5-0.2-0.8-0.3-1.1-0.4
			c-0.9-0.1-1.7-0.2-2.6-0.3c-0.2,0-0.3-0.1-0.5-0.2c-1.4-0.9-2.3-0.8-1.6-3.2c0.1-0.4,0-0.9-0.2-1.5c-0.3,0.6-0.7,1.3-1,1.9
			c-1.4-0.6-1.4-0.6-1.4-2.6c-0.8,0.7-1.5,1.3-2.3,2c-0.4,0.3-0.7,0.6-1.1,0.9c-0.7,0.6-1.4,0.6-2.2,0c-0.6-0.5-1.5-0.7-2.3-1.1
			c-0.1,0.1-0.2,0.2-0.3,0.4c0.2,0.3,0.4,0.8,0.7,1c0.3,0.3,0.8,0.3,1.2,0.5c2.1,0.8,2,0.9,0.8,2.7c-0.7,1-1.1,2.3-1.5,3.5
			c-0.3,1.1,0.6,1.6,1.3,2.1c0.6,0.6,1.3,1.1,2.1,1.6c-0.3,0.3-0.4,0.4-0.5,0.5c-1.5,0.6-3,1.4-4.6,1.6c-1.6,0.2-3.3-0.2-5-0.4
			c-0.2,0-0.3,0.1-0.7,0.2c0.7,0.6,1.2,1,1.7,1.5c-1.3,0.9-4.5,0.6-5.3-0.5c-0.4-0.5-0.4-1.4-0.4-2.1c0-0.5,0.4-0.9,0.3-1.5
			c-0.3,0.4-0.5,0.9-0.8,1.3c-1,1.8-1,1.8-3.4,2.7c1.7,0.9,3.1,1.7,4.6,2.5c0,0.1-0.1,0.2-0.1,0.4c-2.9,0.7-5.9,0.5-8.9,0.3
			c0.1,1.3,1.2,2.4,2.9,2.6c1.2,0.1,2.5,0.1,3.8,0c0.8,0,1.4,0.1,1.5,1.1c-2.2,0.9-4.5,0.9-6.8,0.8c-0.2,1.1,0.3,1.6,2,2.2
			c1.1,0.4,2.2,0.7,3.2,1c0,0.2-0.1,0.4-0.1,0.5c-1.2-0.1-2.3-0.2-3.5-0.3c-0.4,0-1-0.2-1.3,0C38.1,79,38,79.7,38.1,80
			c0.3,0.7,0.8,1.2,1.2,1.8c0.2,0.3,0.3,0.6,0.5,0.9c-0.3,0.1-0.7,0.4-1,0.4c-1.5,0-2.9-0.1-4.4-0.2c-0.2,1.2,0.5,1.7,1.3,2.1
			c0.7,0.3,1.6,0.5,2.3,0.7c0.9,0.3,1,0.8,0.4,1.4c-0.5,0.6-1.1,1-1.7,1.5c-0.3,0.3-0.8,0.5-1,0.8c-1.7,2.6-4.4,2.6-7,2.3
			c-2.9-0.3-3.7-1.5-3.9-4.4c-0.1-1.4-0.9-2.9-1.5-4.2c-0.5-1.1-0.4-1.5,0.8-1.8c1.1-0.2,2.1-0.4,3.2-0.7c0.7-0.2,1.4-0.6,1-1.7
			c-1.4,0.4-2.8,0.8-4.1,1c-0.6,0.1-1.2,0.1-1.8,0c-0.4-0.1-0.9-0.7-0.9-1.1c0.1-1.3,0.1-2.4-0.8-3.4c-0.1-0.1,0-0.4-0.1-0.8
			c1.7,0.2,3.3,0.4,4.7,0.6c0-0.9,0.1-1.8,0.1-2.6c0-0.8-0.4-1.1-1.3-0.8c0,0.3,0.1,0.5,0.1,0.7c0.3,1-0.2,1.3-1,0.9
			c-1.6-0.8-2.6-0.3-3.6,1c-0.3,0.4-1,0.4-1.6,0.7c0.1-0.6,0-1.4,0.4-1.9c2.8-3.2,5.3-6.6,7.5-10.2c1.2-2,2.4-3.9,2.3-6.4
			c-0.1-1.6,1.4-2.8,3.6-3.2c1.1-0.2,2.2-0.2,3.4-0.3c0.6-0.1,1.2-0.2,1.9-0.3c-1.2-0.8-2.4-0.8-7.6,0.2c0.6-0.9,0.9-1.9,1.5-2.3
			c0.6-0.4,1.6-0.1,2.5-0.1c0.1-0.1,0.1-0.3,0.2-0.4c-0.7-0.3-1.4-0.6-2.2-1c0.3-0.2,0.6-0.5,0.9-0.8c-1.1-1.2-1.4-4.5-0.7-5.8
			c0.8-1.3,3-1.5,4-0.3c0.5,0.6,0.9,1.2,1.5,1.7c1.2,1,1.8,0.9,2.6-0.5c1.5,0.5,3,1,4.4,1.6c0.2,0.1,0.2,0.7,0.3,1
			c0.3,0.9,0.4,2.2,1.1,2.8c1.6,1.5,4.7,0.5,5.4-1.6c0.1-0.4,0.5-0.7,0.8-1c0.2-0.2,0.5-0.4,0.7-0.5c-0.3-0.2-0.5-0.5-0.8-0.5
			c-1-0.2-1.9-0.4-1.2-1.9c-1.5,0.7-2.7,1.3-4,1.9c-0.1-0.1-0.1-0.3-0.2-0.4c0.3-0.2,0.6-0.4,1.1-0.7c-0.2-0.9,0.3-1.4,1.2-1.7
			c1.2-0.5,2.4-1.1,3.6-1.7c0.5-0.3,0.8-0.7,1.2-1.1c-0.1-0.2-0.2-0.4-0.3-0.5c-1,0.4-2,0.8-3,1.2c-0.5,0.3-1.1,1.1-1.5-0.1
			c0-0.1-0.6,0-0.9-0.1c-0.5,0-1.4,0.1-1.5-0.1c-0.2-0.5-0.2-1.2-0.1-1.8c0.1-0.6,0.5-1.2,0.7-1.8c-0.1-0.1-0.2-0.2-0.4-0.2
			c-0.4,0.4-0.8,0.7-1.3,1.2c-0.1-1.3-0.1-1.3,4.2-4.4c-1-0.5-2.5-0.2-3.3,0.7c-0.7,0.8-1.3,1.6-2,2.4c-0.4,0.5-0.5,0.9,0.2,1.3
			c0.3,0.2,0.5,0.7,0.4,0.9c-0.1,0.3-0.6,0.5-0.9,0.5c-0.5,0-0.9-0.1-1.4-0.2c-1-0.2-1.2-0.8-0.7-1.7c0.3-0.6,0.5-1.3,0.7-2
			c0.1-0.2,0-0.6-0.2-0.7c-1.1-0.5-0.8-1.4-0.6-2.2c1.4-0.2,1.3,0.9,1.8,1.7c0.2-0.7,0.3-1.4,0.5-2c0.2-0.5,0.6-0.9,0.8-1.3
			c0.3,0.4,0.6,0.7,0.9,1.1c0.1,0.2,0.2,0.3,0.6,0.9c0.2-1,0.3-1.7,0.4-2.4c0.1,0,0.2-0.1,0.3-0.1c1.2-0.4,2.4-1.1,3.4,0.2
			c1,1.3,0.6,2.7,0.1,4.1c-0.2,0.5-0.5,1-0.7,1.6c0.2,0.1,0.3,0.2,0.5,0.3c0.3-0.5,0.7-1,0.9-1.5c0.2-0.6,0.3-1.3,0.3-1.9
			c0-1.2,0.7-1.6,1.6-1.8c1-0.2,1.7,0.3,2.1,1.4c-0.5,0.2-1.1,0.5-1.5,0.7c0.1,0.6,0.2,1.1,0.3,1.7C53.2,35,52.6,35,52,35.1
			c0.6,0.8,0.6,0.8,2.7,1c-0.2,0.2-0.3,0.3-0.4,0.4c-0.3,0.4-0.9,1-0.8,1.2c0.3,0.5,0.8,0.9,1.3,1c1.1,0.2,2.3,0.4,3.3,0.2
			c1.4-0.3,2.1,0.3,2.8,1.2c0.2,0.3,0.5,0.6,0.6,1c0.1,0.3,0,1-0.2,1.1c-0.7,0.4-1.5,0.6-2.2,0.9c-1.2,0.5-2.4,1-3.6,1.6
			c-0.2,0.1-0.3,0.5-0.3,0.5c1.5-0.5,3.1-1.1,4.7-1.5c0.9-0.2,2-0.2,2.6,0.9c0.5,1.1,0.1,2.8-0.8,3.6c-0.6,0.6-1.2,1.3-1.8,1.9
			c0.1,0.1,0.2,0.2,0.3,0.3c0.8-0.8,1.6-1.7,2.4-2.5c1.1-1.2,1.6-1.1,3.1-0.6c1.1,0.4,2.4,0.2,3.6,0.2c0.5,0,1-0.2,1.5-0.3
			c0.7-0.1,1.2,0.2,1.1,0.9c0,0.4-0.3,1.1-0.7,1.2c-1,0.5-2.1,0.7-3.4,1.1c2.1,1.2,3.4-0.7,5-1c-0.6,2-1.3,3.8-3.7,4.5
			c0.1,0.1,0.2,0.2,0.3,0.3c0.3,0,0.6,0,0.8-0.1c1.1-0.9,1.8-0.4,2.7,0.4c0.6,0.6,1.5,1,2.2,1.5c0.2,0.2,0.4,0.5,0.6,0.8
			c0.4,0.8,0.6,1.7,1.1,2.4c0.5,1,1.5,1,2,0c0.4-0.7,0.5-1.5,1-2.1c0.5-0.6,1.3-1.1,2-1.6c0.1,0,0.5,0.3,0.5,0.4
			c0.2,1-0.5,1.5-1.2,2.1c-0.5,0.4-0.9,1-1.1,1.6c-0.7,1.8-2,2.9-3.7,3.7c-0.7,0.3-1.3,0.7-1.9,1c-0.9,0.4-1.7,1.1-2.6,1.1
			c-1.9,0.1-3,1.2-4,2.5c-1,1.2-1.9,2.5-2.7,3.6c-2.3,0.2-4.7,0.3-7,0.5c-1.3,0.1-2.5,0.5-3.8,0.7c-0.3,0.1-0.7-0.1-1-0.1
			c-0.1-0.1-0.1-0.3-0.2-0.4c1.1-0.8,2.1-1.6,3.3-2.3c2-1.1,2.1-1.3,1.1-3.4c-0.1-0.1-0.1-0.3-0.1-0.4c1.1-0.4,2.1-0.8,3.2-1.1
			c0.5-0.1,1.3,0,1.7,0.3c1.6,1,3.3,0.7,5,0.3c0.4-0.1,0.8-0.3,1-0.6c0.8-1.4,1.5-2.8,2.2-4.1c-0.1-0.1-0.2-0.1-0.4-0.2
			c-0.7,0.9-1.4,1.7-2.1,2.6c-0.1-0.1-0.2-0.1-0.3-0.2c0.2-0.6,0.3-1.2,0.5-2c-1,0.8-1.6,1.7-2.5,2c-0.6,0.3-1.6,0-2.3-0.2
			c-0.3-0.1-0.5-0.6-0.7-1c0.4-0.2,0.7-0.5,1.1-0.6c0.7-0.2,1.5-0.2,2.2-0.3c0-0.1,0-0.3,0-0.4c-0.7,0-1.5,0-2.2,0
			c-0.3,0-0.7-0.2-1-0.3c0.3-0.3,0.5-0.6,0.9-0.8c0.4-0.2,0.9-0.3,1.6-0.6c-1.4-1.3-2.5-2.4-3.8-3.4c-0.5-0.4-1.3-0.5-0.8-1.4
			c0.4-0.8,1.2-1.2,2.1-0.7c0.7,0.4,1.2,0.9,1.9,1.4c1.6,1.1,3.2,2.3,4.9,3.3c0.9,0.5,2.1,0.6,3.2,0.9C73,58.9,73.1,58.7,73.1,58.5z
			 M33.1,64c0.9-0.7,1.7-1.3,2.4-2c0.8-0.8,1.7-1.2,2.8-1.3c0.8-0.1,1.6-0.4,2.5-0.7c-3.2-2.4-6.6-2.3-10.4-1.8c1,0.9,2,1.5,2.4,2.4
			C33.2,61.4,33,62.6,33.1,64z M41,49.8c-1.7-1.6-4.1-0.9-5.9-1.8C36.7,49.8,39.1,48.9,41,49.8z"/>
		<path fill="#FFFFFF" d="M33.1,110c-0.5,0.6-1.2,1.2-1.5,1.8c-1.2,2.8-2.6,5.5-2.5,8.6c0,0.7-0.1,1.5,0.1,2.2
			c0.4,1.4-0.4,1.9-1.4,2.3c-4.2,1.9-7.4,5.1-10.2,8.7c-0.3,0.4-0.7,0.7-0.9,1.2c-0.9,2-2.3,3.2-4.4,3.8c-0.9,0.2-1.5,1.3-2.3,1.8
			c-0.4,0.3-0.9,0.4-1.3,0.5c-0.1-0.4-0.3-0.9-0.2-1.3c1-3.2,1.8-6.4,3.1-9.5c1.4-3.3,3-6.6,5.1-9.5c2.7-3.8,5.7-7.4,8.8-10.9
			c2.5-2.8,5.2-5.4,7.9-7.9c4.2-3.8,8.4-7.6,12.7-11.2c3.2-2.7,6.4-5.3,9.8-7.8c3-2.2,6.3-4.1,9.9-5.3c1.3-0.5,3.1,0.1,3.5,1.4
			c0.4,1.3,1.2,2.8-0.2,4.1c1.9,0.6,2.3,1.6,1.7,3.5c-0.1,0.4,0.1,1.2,0.3,1.2c1.7,0.4,2.1,2,3,3.1c0.6,0.7,0.9,1.7,1.2,2.4
			c-2.7,0.9-5.5,1.7-8.1,2.8c-3.5,1.4-6.6,3.4-9.4,5.8c-3.5,3.1-7.4,5.5-11.2,8c-3.3,2.2-6.1,4.9-8.5,8.1c-1.6,2-3.3,3.9-5.3,6.1
			c-0.4-1.1-0.9-2-1-2.9c-0.3-3.2,0.3-6.2,1.4-9.2c0.2-0.5,0.2-1.1,0.4-1.7C33.4,110.2,33.2,110.1,33.1,110z"/>
		<path fill="#FFFFFF" d="M67.5,76.4c-1.1,0.2-2.1,0.2-2.9,0.5c-0.8,0.3-1.5,0.9-2.5,1.6c-0.1-1.6,1.1-1.7,1.7-2.2
			c-1-0.3-2.4,0.6-3,1.7c-0.3,0.6-0.8,1.4-1.4,1.7c-2.5,1.4-4.7,3.2-6.9,5.1c-4.9,4.3-10,8.5-14.9,12.8c-0.5,0.5-1.2,0.8-2,1.4
			c0-2.8-0.1-5.3,0.1-7.9c0-0.6,0.7-1.3,1.3-1.6c1.6-0.9,3.2-1.6,4.9-2.4c0.4-0.2,0.8-0.3,1.1-0.6c2.5-1.8,5-3.6,7.4-5.5
			c3.1-2.5,6.2-5.1,9.3-7.7c1.6-1.3,4.5-1.1,5.8,0.4C66.2,74.5,66.8,75.5,67.5,76.4z"/>
		<path fill="#FFFFFF" d="M79.9,40.2c-0.3,0.3-0.8,0.5-0.8,0.8c0,0.8,0.2,1.6,0.3,2.3c-0.6,0.7-1.2,1.3-1.7,2
			c0.1,0.1,0.2,0.3,0.3,0.4c0.4-0.3,0.9-0.6,1.3-0.9c0.5-0.4,0.9-0.9,1.5-1.2c0.5-0.2,1.1-0.1,1.7-0.1c0,0.5,0.1,1,0,1.4
			c-0.5,1.6-1,3.3-1.6,4.8c-0.9,2.3-2.9,3.6-4.9,4.7c-0.6,0.3-1.4,0.5-2-0.2c-0.7-0.7-1.2-1.5-0.7-2.4c1.2-2.7,0.8-5.3,0.1-8
			c-0.2-0.8-0.1-1.6,0-2.4c0-0.3,0.5-0.6,0.8-0.8c0.2,0.3,0.5,0.6,0.6,0.9c0.2,0.5,0.2,1,0.3,1.6c0.1,0,0.3-0.1,0.4-0.1
			c0-0.6,0-1.1,0-1.7c-0.1-1.3,0.4-1.9,2.4-2.3C78.7,38.8,79.5,39.3,79.9,40.2L79.9,40.2z"/>
		<path fill="#FFFFFF" d="M57.6,104.4c4.6-5.1,10.3-8,17-9.3c0.6-0.1,1.5,0.3,1.9,0.8c1.2,1.3,2.3,2.8,3.2,4.6
			C71.8,99.7,64.7,101.7,57.6,104.4z"/>
		<path fill="#FFFFFF" d="M50.2,30.3c0.6-0.6,1-0.9,1.4-1.4c-0.4,0-0.6,0-0.8-0.1c-0.4-0.1-0.8-0.3-1.2-0.5c0.4-0.3,0.7-0.9,1.1-1
			c1.7-0.1,3.4-0.2,5.1,0c2.2,0.2,4.3,0.6,6.5,0.7c-1.6-1.7-4-0.8-6-1.7c1.7-0.7,3.2-0.3,4.6,0.3c1.3,0.6,2.5,1.6,3.7,2.5
			c-0.4-0.5-0.7-1.1-1.1-1.7c2-0.5,4.2,1.2,3.8,3c-0.1,0.4-0.5,0.8-0.8,0.9c-0.7,0.2-1.4,0.4-2.1,0.3c-2.3-0.2-4.3,0.5-6.4,1.2
			c-0.5,0.2-1.5,0-1.7-0.4c-1.1-1.6-2.5-2.2-4.4-1.9C51.4,30.6,50.9,30.4,50.2,30.3z"/>
		<path fill="#FFFFFF" d="M90.5,65.8c0-0.5,0.1-1,0.1-1.7c-0.5,0.2-0.7,0.3-0.9,0.5c-1.2,1-1.5,0.9-2.3-0.5c-0.9-1.7-1.5-3.4,0-5
			c0.4-0.4,0.8-0.8,1.3-1.1c1.3-0.8,2.3-1.7,2-3.4c0-0.2,0.1-0.4,0.1-0.6c1.9,0.2,4,2.4,4,4.3c-0.1,2-0.3,4-0.8,6
			C93.6,66.3,92.7,66.6,90.5,65.8z M91.5,61.2c-0.1,0-0.3,0-0.4,0.1c-0.1,0.5-0.3,1.2-0.1,1.5c0.4,0.5,1.1,0.9,1.8,1.3
			c0.1,0.1,0.5-0.4,0.8-0.6c0-0.1,0-0.2,0-0.3C91.8,63.5,91.5,62.5,91.5,61.2z"/>
		<path fill="#FFFFFF" d="M82.5,71.2c0.3-0.8,0.5-1.6,0.9-2.7c0.3,0.7,0.4,1.3,0.7,1.7c0.2,0.3,0.6,0.4,0.9,0.6c0-0.3,0-0.7-0.1-1
			c-0.2-0.6-0.6-1.3-0.9-2c2.5-0.1,3.9,0.6,4.8,2.5c-0.7,0.1-1.3,0.2-2.1,0.4c0.4,0.2,0.6,0.3,0.7,0.4c0.5,0.4,1.3,0.8,1.3,1.1
			c-0.1,0.7-0.4,1.7-0.9,2.1c-1.7,1.1-3.5,1.3-5.4,0.3c-0.9-0.5-1.8-0.8-2.7-1.2c-1.3-0.4-1.6-0.9-1-2c0.5-1,0.6-1.9,0.2-3
			c-0.3-0.8,1.3-2.9,2.1-2.7c0.5,0.1,1.1,0.8,1.2,1.3c0.2,0.7,0,1.5-0.1,2.3c0,0.5-0.1,1.1-0.2,1.6C82.1,71.1,82.3,71.2,82.5,71.2z"
			/>
		<path fill="#FFFFFF" d="M77.1,74.1c1.4,0.5,1.2,1.6,0.8,2.7c-0.2,0.6-0.5,1.2-0.8,1.8c-0.2,0.3-0.5,0.9-0.8,0.8
			c-0.4,0-0.9-0.4-1.1-0.7c-0.6-0.9-1-1.9-1.5-2.9c-0.4-0.9,0.1-1.5,0.7-2c0.5-0.4,1.1-0.9,0.5-1.7c-0.6,0.8-1.2,1.4-1.7,2.1
			c-1-1.1-1.1-3.5-0.2-4.5c0.6-0.6,1.2-1.3,2-1.6c0.7-0.2,1.9-0.2,2.2,0.2c0.6,0.7,0.9,1.8,0.9,2.6C78.1,72,77.5,72.9,77.1,74.1z"/>
		<path fill="#FFFFFF" d="M64.5,34.9c0.4,0.1,0.9,0.3,1.3,0.4c0.5,0.1,1,0.2,1.8,0.4c-0.4,0.6-0.6,1-1,1.3c-0.7,0.6-1.6,1.1-2.2,1.7
			c-1.6,1.6-2.1,1.7-3.8,0.1c-0.2-0.1-0.3-0.3-0.5-0.4c0-0.5,0.1-1,0.1-1.7c-0.9,0.5-1.5,0.9-2.2,1.2c-0.1-0.1-0.2-0.3-0.3-0.4
			c1.6-1.4,2.7-3.4,4.9-4.1c1.1-0.4,2.2-0.9,3.3-1.3c0.8-0.3,1.7-0.1,2.2,0.7c0.2,0.4,0.4,1,0.2,1.3c-0.2,0.4-0.7,0.8-1.1,0.8
			c-0.9,0-1.8-0.3-2.8-0.5C64.6,34.7,64.5,34.8,64.5,34.9z"/>
		<path fill="#FFFFFF" d="M76.4,36.6c0.1,0.7,0.4,1.6,0.1,1.9c-0.7,1-1.8,0.6-2.7,0.1c-0.5-0.3-1-0.6-1.5-0.9
			c-0.1,0.1-0.2,0.3-0.3,0.4c0.2,0.2,0.5,0.4,0.7,0.6c0.3,0.4,0.7,0.9,0.6,1.2c-0.1,0.4-0.8,0.7-1.2,0.8c-0.5,0-1.2-0.2-1.4-0.6
			c-0.7-1.4-0.7-3.4,1.1-4.6c0.6-0.4,1.2-1.2,1.7-1.1c1.3,0.1,2.7,0.6,4,1.1c0.8,0.3,1.5,0.9,2.3,1.4c0.5,0.3,0.9,0.7,1.4,1
			c-0.1,0.2-0.3,0.5-0.4,0.5c-0.7-0.1-1.5-0.1-2.2-0.4c-0.6-0.2-1-0.8-1.5-1.2C76.8,36.6,76.4,36.6,76.4,36.6z"/>
		<path fill="#FFFFFF" d="M68,37.6c-0.2,0.4-0.4,0.8-0.6,1.2c-0.2,0.4-0.5,1-0.5,1.4c0.1,0.3,0.7,0.6,1.1,0.7c1.3,0.3,1.7,1.1,0.8,2
			C68,44,67.7,45,68.5,46.7c-1.2-0.1-2.2-0.1-3.1-0.1c-0.1,0-0.3-0.1-0.4-0.1c-0.6-1.3-1.7-2.7-1.7-4c0-1.4,0.8-2.8,2.2-3.6
			c0.7-0.4,1.5-0.8,2.2-1.3C67.8,37.5,67.9,37.6,68,37.6z"/>
		<path fill="#FFFFFF" d="M71.4,68.7c-1.2-1.9-1.1-1.8,0.9-2.7c3-1.3,6-2.6,8.4-5c1.2,0.8,1.2,1.4,0.6,2.7c-1.3,2.6-3.9,2.8-6.2,3.5
			c-0.7,0.2-1.3,0.3-1.8,1.1c-0.2,0.3-1.1,0.3-1.6,0.4C71.6,68.8,71.5,68.7,71.4,68.7z"/>
		<path fill="#FFFFFF" d="M71.4,68.7c0.1,0,0.2,0,0.3,0.1c-0.1,0.5-0.2,1.1-0.4,1.5c-0.4,0.8-0.8,1.5-1.3,2.2c-0.7,1-1.5,1-2-0.2
			c-0.3-0.8-0.5-1.7-0.3-2.5C68.1,68.2,69.3,67.8,71.4,68.7z"/>
		<path fill="#FFFFFF" d="M69.3,77.5c0.6-0.3,1.1-0.6,1.7-0.8c0.8-0.4,1.8-0.9,2.3,0c0.3,0.6,0.1,1.6-0.1,2.4
			c-0.2,0.7-0.8,1.2-1.3,1.8c-0.2,0.3-0.7,0.5-1,0.5c-0.3-0.1-0.5-0.5-0.6-0.9C69.9,79.4,69.6,78.5,69.3,77.5z"/>
		<path fill="#FFFFFF" d="M88,45.8c2.5,1.9,3,4.1,1.1,5.7c-0.4-0.4-0.9-0.9-1.4-1.6c-0.4,0.1-1.3,0.8-2-0.4c0.5-0.2,1-0.3,1.4-0.4
			C87.2,48,86.3,46.6,88,45.8z"/>
		<path fill="#FFFFFF" d="M34.5,34.4c-1.3-3.6,0.1-5.3,4.3-5C37.3,31.1,36,32.7,34.5,34.4z"/>
		<path fill="#FFFFFF" d="M80.5,78.8c-0.1-0.6,0-1.1-0.2-1.5c-0.2-0.5-0.5-1.1-0.9-1.3c-1-0.4-0.8-1.1-0.6-1.8
			c0.1-0.2,1.1-0.1,1.6,0.1c0.6,0.2,1,0.7,1.5,1.1c1.3,1,1.3,1.8-0.1,2.6C81.6,78.4,81.1,78.6,80.5,78.8z"/>
		<path fill="#FFFFFF" d="M60.5,33c-1,1.6-1.9,2.9-2.7,4.2c-0.5,0.8-1.1,1.2-1.9,0.9c-0.4-0.1-0.8-0.6-0.9-1
			c-0.1-0.2,0.3-0.7,0.5-0.9c0.9-0.8,1.9-1.6,2.9-2.3C59,33.5,59.7,33.3,60.5,33z"/>
		<path fill="#FFFFFF" d="M76,55.4c0.8-0.6,1.5-1.1,2.4-1.7c0.2,0.4,0.3,0.7,0.5,1.2c0.4-0.8,0.7-1.6,1.1-2.3
			c0.4-0.7,1.1-1.2,1.8-1.7c0.3,1.8-0.5,3.3-1.7,4.3C78.9,56.1,77.4,56.5,76,55.4z"/>
		<path fill="#FFFFFF" d="M72.4,43.5c-0.5,0.1-1,0.1-1.9,0.2c0.5,0.4,0.8,0.7,1,1c0.3,0.3,0.4,0.7,0.6,1.1c-0.4,0.2-0.8,0.6-1.2,0.5
			c-0.8-0.2-1.6-0.6-2.4-0.9c0.5-0.8,0.9-1.9,1.6-2.5C71.8,41.6,72.3,41.8,72.4,43.5z"/>
		<path fill="#FFFFFF" d="M39.1,33.6c-0.3,1.6-0.5,3.3-0.8,4.9c-1.3-0.2-2.1-1.6-1.9-3.2C36.6,34,37.6,33.4,39.1,33.6z"/>
		<path fill="#FFFFFF" d="M83.2,84.8c1.2-0.6,0.9-3.4,3.3-2.2c0.2-0.2,0.3-0.2,0.3-0.3c0.2-0.5,0.4-1,0.7-1.4c0-0.1,0.8,0.2,0.8,0.3
			c-0.1,0.5-0.1,1.2-0.4,1.6c-0.3,0.5-1,0.7-1.4,1c-0.4,0.3-0.8,0.6-1,0.9C85,85.8,84,85.8,83.2,84.8z"/>
		<path fill="#FFFFFF" d="M83.9,45.8c0.5-1.3,0.9-2.5,1.4-3.9c0.2,0.2,0.6,0.4,0.7,0.7c0.3,1.1,0.5,2.3,0.5,3.4c0,0.5-0.6,1-0.9,1.5
			c-0.3-0.3-0.7-0.6-1-0.9C84.4,46.3,84.1,46,83.9,45.8z"/>
		<path fill="#FFFFFF" d="M31.3,124c-0.2-0.1-0.7-0.2-0.8-0.4c-0.8-2.7-0.7-5.4,0.4-8c0.1,0,0.3,0,0.4,0
			C31.3,118.3,31.3,121.1,31.3,124z"/>
		<path fill="#FFFFFF" d="M79.8,40.2c0.4,0.3,0.7,0.6,1.4,1.1c-0.3-0.9-0.4-1.5-0.6-2.3c0.6,0,1.2-0.1,1.8,0
			c0.7,0.1,0.6,0.6,0.3,1.2c-0.3,0.5-0.4,1.1-0.7,1.6c-0.3,0.4-0.9,0.7-1.6,1.4C80.2,42,80,41.1,79.8,40.2
			C79.9,40.2,79.8,40.2,79.8,40.2z"/>
		<path fill="#FFFFFF" d="M74.8,86c0,1.6,0,2.9,0,4.4C72.5,88.3,72.4,87.4,74.8,86z"/>
		<path fill="#FFFFFF" d="M75.9,84c-0.1-0.9-0.2-1.7-0.2-2.5c0-0.3,0.2-0.6,0.4-0.8c0.2-0.1,0.8-0.1,0.8-0.1
			c0.2,0.8,0.4,1.7,0.4,2.5C77.3,84,76.8,84.4,75.9,84z"/>
		<path fill="#FFFFFF" d="M85.1,77.8c0.8,0.6,2.6,0.3,2.2,2.7c-0.9-0.3-1.7-0.4-2.4-0.9c-0.3-0.2-0.2-1.1-0.3-1.6
			C84.8,77.9,85,77.9,85.1,77.8z"/>
		<path fill="#FFFFFF" d="M90.7,55.1c-0.8,0.7-1.4,1.2-2,1.7c0,0-0.5-0.4-0.5-0.5c0.4-0.8,0.9-1.5,1.3-2.3
			C89.8,54.3,90.1,54.5,90.7,55.1z"/>
		<path fill="#FFFFFF" d="M83.6,47.1c1.1,0.9,1.7,2,1.2,3.5C83.2,49.2,82.9,48.5,83.6,47.1z"/>
		<path fill="#FFFFFF" d="M62.2,57.1c-1,0.1-0.9,2.2-2.2,1.2c-0.9-0.7-0.2-1.5,0.4-2.1C61,56.4,61.6,56.8,62.2,57.1z"/>
		<path fill="#FFFFFF" d="M47.6,29.3c-1.2,0.4-2.1,0.6-2.7-0.6c-0.1-0.2,0.2-0.8,0.4-0.9C46.5,27.6,47,28.4,47.6,29.3z"/>
		<path fill="#FFFFFF" d="M40.8,34.7c-0.2,1.2-0.4,2.1-0.6,3.1c0,0.2-0.4,0.3-0.6,0.3c-0.1,0-0.4-0.1-0.5-0.3
			C38.8,37,39.6,35.3,40.8,34.7z"/>
		<path fill="#FFFFFF" d="M90,72.4c0.9,1.8,0.2,3.1-1.6,3.1C89,74.5,89.4,73.5,90,72.4z"/>
		<path fill="#FFFFFF" d="M45.4,46.7c0.8,0.7,1.6,1.4,2.6,2.2C45.9,49.1,45.2,48.4,45.4,46.7z"/>
		<path fill="#FFFFFF" d="M72.6,81.6c0.5-0.5,0.8-0.8,1.1-1.1c0.3,0.4,0.9,0.8,1,1.2c0.1,0.3-0.4,0.7-0.7,1.1
			C73.6,82.5,73.2,82.1,72.6,81.6z"/>
		<path fill="#FFFFFF" d="M69.9,31.6c1.1,0.2,1.8,0.3,2.5,0.6c0.2,0.1,0.2,0.5,0.4,0.7c-0.6,0-1.3,0.2-1.9,0.1
			C70.5,32.9,70.3,32.3,69.9,31.6z"/>
		<path fill="#FFFFFF" d="M79.2,57.3c-0.5,0.5-0.9,0.9-1.4,1.4c-0.3-0.6-0.6-1.2-1.1-2c1,0.1,1.6,0.2,2.2,0.2
			C79,57,79.1,57.2,79.2,57.3z"/>
		<path fill="#FFFFFF" d="M47.4,46c0.9-0.3,1.7-0.4,1.9,0.7c0.1,0.3-0.5,1-0.7,1C47.9,47.4,47.1,47.1,47.4,46z"/>
		<path fill="#FFFFFF" d="M82.1,59.7c0.5-1,0.9-1.9,1.3-2.9C84.6,58.3,84.1,59.4,82.1,59.7z"/>
		<path fill="#FFFFFF" d="M46,42.9c-0.2,1.9-1.2,2.2-2.8,1.1C44.2,43.6,45,43.3,46,42.9z"/>
		<path fill="#FFFFFF" d="M78.1,77.7c1.4,1.3,1.4,2,0,2.7C78.1,79.4,78.1,78.5,78.1,77.7z"/>
		<path fill="#FFFFFF" d="M45.1,39.6c-0.2,1.4-0.8,1.8-1.6,1.8c-0.2,0-0.3-0.5-0.5-0.8C43.6,40.3,44.2,40,45.1,39.6z"/>
		<path fill="#FFFFFF" d="M46.7,42.5c-0.8,0-1.6,0.1-2.4,0.1c0.7-1.5,1.6-1,2.4-0.6C46.7,42.2,46.7,42.4,46.7,42.5z"/>
		<path fill="#FFFFFF" d="M79.9,86.3c-1.1-0.2-1.4-0.8-1.4-1.8c0-0.1,0.3-0.3,0.5-0.4C79.4,84.7,80.5,85.1,79.9,86.3z"/>
		<path fill="#FFFFFF" d="M83.8,82.1c0.5,1.3-0.6,1.5-1.1,2.1C82,83.2,82.1,82.9,83.8,82.1z"/>
		<path fill="#FFFFFF" d="M87.3,77.9c-0.5-0.4-1-0.7-1.5-1.1c0,0,0.3-0.4,0.4-0.6c0.5,0.4,1.1,0.7,1.6,1.1
			C87.6,77.4,87.5,77.6,87.3,77.9z"/>
		<path fill="#FFFFFF" d="M92,74.7c0,0.9,0.1,1.8-1,2.2c-0.1-0.1-0.3-0.1-0.4-0.2c0.4-0.7,0.7-1.4,1.1-2.1
			C91.8,74.6,91.9,74.6,92,74.7z"/>
		<path fill="#FFFFFF" d="M80.8,81.8c-0.5,0.8-0.8,1.2-1.2,1.9c-0.2-0.9-0.3-1.5-0.5-2.1C79.6,81.7,80.1,81.7,80.8,81.8z"/>
		<path fill="#FFFFFF" d="M33.7,36.3c0.1,0.6,0.3,1.2,0.4,1.8c-0.3,0-0.9,0.1-1-0.1C32.6,37.4,32.7,36.8,33.7,36.3z"/>
		<path fill="#FFFFFF" d="M87.4,84.7c0.2,0.4,0.2,0.5,0.2,0.5c-0.4,0.5-0.8,1-1.3,1.5c-0.2-0.2-0.4-0.3-0.5-0.5
			C86.3,85.7,86.8,85.3,87.4,84.7z"/>
		<path fill="#FFFFFF" d="M72.4,86.2c-0.5-0.9-0.8-1.6-1.1-2.2c0.1-0.1,0.1-0.1,0.2-0.2c0.3,0.2,0.5,0.4,0.8,0.6
			c0.3,0.2,0.5,0.4,0.9,0.8C72.9,85.5,72.7,85.8,72.4,86.2z"/>
		<path fill="#FFFFFF" d="M82.6,49.2c0.3,0.4,0.7,0.7,1,1.1c0.1,0.2,0,0.5,0,0.8c-0.2-0.1-0.5,0-0.6-0.2
			C82.5,50.4,81.9,49.9,82.6,49.2z"/>
		<path fill="#FFFFFF" d="M248.2,47c0.9,0,1.6,0,2.4,0c2.2,0.1,3.1,1,3,3c0,2-1.1,3.2-3.2,3.3c-0.3,0-0.5,0-0.8,0
			c-1.1,0.1-1.5-0.3-1.5-1.5C248.3,50.2,248.2,48.7,248.2,47z"/>
		<path fill="#FFFFFF" d="M248.3,46.2c0-1.7,0-3.1,0-4.7c1.6-0.2,3.2-0.6,4.3,0.8c0.4,0.6,0.4,1.8,0.1,2.5
			C251.8,46.5,250,46.1,248.3,46.2z"/>
		<path fill="#FFFFFF" d="M353.6,85c-2.4,0.1-3.9-1.2-4.8-3.3c-0.8-1.7-0.9-3.6-0.5-5.5c0.8-3.5,5-4.8,8.2-2.8c3.2,2,3,7.8,1.3,9.8
			C356.8,84.4,355.3,85.1,353.6,85z"/>
		<path fill="#FFFFFF" d="M324.7,85c-2.6,0-4.5-1.2-5.1-3.7c-0.4-1.6-0.6-3.3-0.4-5c0.5-3.3,4.2-4.9,7.5-3.3
			c2.2,1.1,3.4,3.4,3.2,6.3c0,0.5-0.1,0.9-0.2,1.4C329.3,83.5,327.5,85,324.7,85z"/>
		<path fill="#FFFFFF" d="M129.2,53.5c-1.9,0.2-4.7-1.4-5.2-3.7c-0.3-1.6-0.5-3.3-0.3-5c0.4-3,3.2-4.1,5.7-3.8c3.4,0.4,5.3,3,5,6.8
			c0,0.6-0.1,1.3-0.3,1.9C133.3,52.4,131.9,53.5,129.2,53.5z"/>
		<path fill="#FFFFFF" d="M179.2,53.2c-2.5,0-5,0-7.8,0c2.6-3.9,5.1-7.6,7.8-11.6C179.2,45.6,179.2,49.4,179.2,53.2z"/>
		<path fill="#FFFFFF" d="M312.1,46.9c1.2,0.1,2.2,0.1,3.1,0.2c1.4,0.2,2.7,1.6,2.7,2.8c0,1.1-1.2,2.7-2.3,3.1
			c-0.3,0.1-0.6,0.2-0.9,0.2c-2.6,0.3-2.7,0.2-2.7-2.4C312.1,49.6,312.1,48.4,312.1,46.9z"/>
		<path fill="#FFFFFF" d="M401.3,78.6c2-0.3,3.8-0.2,5.3,1.1c1.3,1.1,0.4,3.9-1.5,4.6c-0.9,0.3-1.9,0.3-2.8,0.3
			c-0.3,0-0.9-0.7-0.9-1.1C401.3,81.9,401.3,80.3,401.3,78.6z"/>
		<path fill="#FFFFFF" d="M158.8,105.8c0.9,2,1.8,3.7,2.7,5.6c-1.8,0-3.4,0-5.1,0C157.2,109.5,157.9,107.8,158.8,105.8z"/>
		<path fill="#FFFFFF" d="M320.6,111.4c-1.7,0-3.3,0-5.1,0c0.8-1.9,1.6-3.7,2.4-5.6c0.1,0,0.2,0,0.4,0
			C319.1,107.7,319.8,109.5,320.6,111.4z"/>
		<path fill="#FFFFFF" d="M439.4,74.6c1,2,1.8,3.8,2.7,5.6c-1.7,0-3.3,0-5,0C437.8,78.3,438.6,76.5,439.4,74.6z"/>
		<path fill="#FFFFFF" d="M190,48.7c0.8-1.9,1.5-3.7,2.4-5.7c0.8,2,1.6,3.8,2.4,5.7C193.1,48.7,191.6,48.7,190,48.7z"/>
		<path d="M33.1,64c-0.1-1.4,0.1-2.6-0.3-3.4c-0.4-0.9-1.4-1.4-2.4-2.4c3.8-0.5,7.2-0.6,10.4,1.8c-0.9,0.3-1.7,0.7-2.5,0.7
			c-1.1,0.1-2,0.5-2.8,1.3C34.8,62.7,34,63.3,33.1,64z M37.5,59.7c0-0.2,0.1-0.3,0.1-0.5c-0.9-0.3-1.7-0.6-2.6-0.8
			c-0.2-0.1-0.5,0.2-0.8,0.3c0.2,0.2,0.4,0.6,0.6,0.7C35.7,59.7,36.6,59.7,37.5,59.7z"/>
		<path d="M41,49.8c-1.9-0.9-4.3,0-5.9-1.8C37,48.9,39.4,48.1,41,49.8z"/>
		<path d="M91.5,61.2c0,1.3,0.3,2.3,2,1.9c0,0.1,0,0.2,0,0.3c-0.3,0.2-0.7,0.6-0.8,0.6c-0.6-0.3-1.3-0.7-1.8-1.3
			c-0.2-0.3,0.1-1,0.1-1.5C91.2,61.3,91.3,61.2,91.5,61.2z"/>
		<path fill="#FFFFFF" d="M37.5,59.7c-0.9-0.1-1.8-0.1-2.7-0.2c-0.2,0-0.4-0.4-0.6-0.7c0.3-0.1,0.6-0.4,0.8-0.3
			c0.9,0.2,1.7,0.5,2.6,0.8C37.6,59.4,37.5,59.6,37.5,59.7z"/>
	</g>
</g>
</svg>
